<svg width="454" height="147" viewBox="0 0 454 147" fill="none" xmlns="http://www.w3.org/2000/svg">
<mask id="path-1-outside-1_26_343" maskUnits="userSpaceOnUse" x="8" y="23" width="442" height="69" fill="black">
<rect fill="white" x="8" y="23" width="442" height="69"/>
<path d="M41.176 90.904C30.552 90.84 22.584 88.216 17.272 83.032C12.024 77.848 9.4 69.432 9.4 57.784C9.4 47.224 11.96 38.936 17.08 32.92C22.2 26.84 29.432 23.8 38.776 23.8C44.536 23.8 49.56 24.664 53.848 26.392C58.136 28.12 61.432 30.584 63.736 33.784C66.04 36.984 67.192 40.76 67.192 45.112C67.192 48.568 66.424 51.64 64.888 54.328C63.416 57.016 61.208 59.416 58.264 61.528C60.632 61.912 62.68 63.192 64.408 65.368C66.2 67.544 67.096 70.072 67.096 72.952C67.096 76.024 66.264 78.936 64.6 81.688C63 84.376 60.248 86.584 56.344 88.312C52.504 90.04 47.448 90.904 41.176 90.904ZM34.552 55.096C35.704 55.672 37.144 55.96 38.872 55.96C40.92 55.96 42.68 55.48 44.152 54.52C45.688 53.496 46.456 51.992 46.456 50.008C46.456 48.088 45.688 46.648 44.152 45.688C42.68 44.664 40.888 44.152 38.776 44.152C37.112 44.152 35.704 44.44 34.552 45.016C33.656 45.4 32.984 46.072 32.536 47.032C32.088 47.992 31.864 49.016 31.864 50.104C31.864 51.192 32.088 52.216 32.536 53.176C32.984 54.072 33.656 54.712 34.552 55.096ZM34.552 77.56C35.768 78.072 37.208 78.328 38.872 78.328C40.92 78.328 42.68 77.912 44.152 77.08C45.688 76.184 46.456 74.872 46.456 73.144C46.456 71.48 45.688 70.2 44.152 69.304C42.616 68.408 40.824 67.96 38.776 67.96C37.176 67.96 35.768 68.216 34.552 68.728C33.656 69.112 32.984 69.72 32.536 70.552C32.088 71.32 31.864 72.184 31.864 73.144C31.864 74.104 32.088 75 32.536 75.832C32.984 76.6 33.656 77.176 34.552 77.56ZM119.376 91C112.208 91 106.064 89.4 100.944 86.2C95.8235 82.936 91.9515 78.616 89.3275 73.24C86.7675 67.8 85.4875 61.88 85.4875 55.48C85.4875 46.648 86.5115 39.16 88.5595 33.016C90.6075 26.872 94.6075 23.8 100.56 23.8C105.232 23.8 108.592 25.176 110.64 27.928C112.688 30.68 113.712 34.072 113.712 38.104C113.712 40.792 113.456 43.928 112.944 47.512C112.432 50.968 112.176 53.88 112.176 56.248C112.176 59.384 112.72 62.072 113.808 64.312C114.896 66.552 116.752 67.672 119.376 67.672C122.064 67.672 123.92 66.552 124.944 64.312C126.032 62.072 126.576 59.384 126.576 56.248C126.576 53.88 126.32 50.968 125.808 47.512C125.296 43.928 125.04 40.792 125.04 38.104C125.04 34.072 126.064 30.68 128.112 27.928C130.16 25.176 133.52 23.8 138.192 23.8C144.144 23.8 148.144 26.872 150.192 33.016C152.24 39.16 153.264 46.648 153.264 55.48C153.264 61.88 151.952 67.8 149.328 73.24C146.768 78.616 142.928 82.936 137.808 86.2C132.688 89.4 126.544 91 119.376 91ZM203.289 90.904C192.665 90.84 184.697 88.216 179.385 83.032C174.137 77.848 171.513 69.432 171.513 57.784C171.513 47.224 174.073 38.936 179.193 32.92C184.313 26.84 191.545 23.8 200.889 23.8C206.649 23.8 211.673 24.664 215.961 26.392C220.249 28.12 223.545 30.584 225.849 33.784C228.153 36.984 229.305 40.76 229.305 45.112C229.305 48.568 228.537 51.64 227.001 54.328C225.529 57.016 223.321 59.416 220.377 61.528C222.745 61.912 224.793 63.192 226.521 65.368C228.313 67.544 229.209 70.072 229.209 72.952C229.209 76.024 228.377 78.936 226.713 81.688C225.113 84.376 222.361 86.584 218.457 88.312C214.617 90.04 209.561 90.904 203.289 90.904ZM196.665 55.096C197.817 55.672 199.257 55.96 200.985 55.96C203.033 55.96 204.793 55.48 206.265 54.52C207.801 53.496 208.569 51.992 208.569 50.008C208.569 48.088 207.801 46.648 206.265 45.688C204.793 44.664 203.001 44.152 200.889 44.152C199.225 44.152 197.817 44.44 196.665 45.016C195.769 45.4 195.097 46.072 194.649 47.032C194.201 47.992 193.977 49.016 193.977 50.104C193.977 51.192 194.201 52.216 194.649 53.176C195.097 54.072 195.769 54.712 196.665 55.096ZM196.665 77.56C197.881 78.072 199.321 78.328 200.985 78.328C203.033 78.328 204.793 77.912 206.265 77.08C207.801 76.184 208.569 74.872 208.569 73.144C208.569 71.48 207.801 70.2 206.265 69.304C204.729 68.408 202.937 67.96 200.889 67.96C199.289 67.96 197.881 68.216 196.665 68.728C195.769 69.112 195.097 69.72 194.649 70.552C194.201 71.32 193.977 72.184 193.977 73.144C193.977 74.104 194.201 75 194.649 75.832C195.097 76.6 195.769 77.176 196.665 77.56ZM280.313 90.904C269.689 90.84 261.721 88.216 256.409 83.032C251.161 77.848 248.537 69.432 248.537 57.784C248.537 47.224 251.097 38.936 256.217 32.92C261.337 26.84 268.569 23.8 277.913 23.8C283.674 23.8 288.698 24.664 292.986 26.392C297.273 28.12 300.569 30.584 302.873 33.784C305.177 36.984 306.33 40.76 306.33 45.112C306.33 48.568 305.562 51.64 304.026 54.328C302.554 57.016 300.346 59.416 297.402 61.528C299.77 61.912 301.818 63.192 303.546 65.368C305.338 67.544 306.234 70.072 306.234 72.952C306.234 76.024 305.402 78.936 303.737 81.688C302.138 84.376 299.385 86.584 295.481 88.312C291.641 90.04 286.585 90.904 280.313 90.904ZM273.689 55.096C274.841 55.672 276.281 55.96 278.009 55.96C280.057 55.96 281.817 55.48 283.289 54.52C284.825 53.496 285.593 51.992 285.593 50.008C285.593 48.088 284.825 46.648 283.289 45.688C281.817 44.664 280.025 44.152 277.913 44.152C276.249 44.152 274.841 44.44 273.689 45.016C272.793 45.4 272.121 46.072 271.673 47.032C271.225 47.992 271.001 49.016 271.001 50.104C271.001 51.192 271.225 52.216 271.673 53.176C272.121 54.072 272.793 54.712 273.689 55.096ZM273.689 77.56C274.905 78.072 276.345 78.328 278.009 78.328C280.057 78.328 281.817 77.912 283.289 77.08C284.825 76.184 285.593 74.872 285.593 73.144C285.593 71.48 284.825 70.2 283.289 69.304C281.753 68.408 279.961 67.96 277.913 67.96C276.313 67.96 274.905 68.216 273.689 68.728C272.793 69.112 272.121 69.72 271.673 70.552C271.225 71.32 271.001 72.184 271.001 73.144C271.001 74.104 271.225 75 271.673 75.832C272.121 76.6 272.793 77.176 273.689 77.56ZM352.251 91C345.787 91 340.315 89.688 335.835 87.064C331.355 84.376 328.411 80.376 327.003 75.064C326.427 72.888 326.043 70.232 325.851 67.096C325.659 63.96 325.563 59.96 325.563 55.096C325.563 45.56 326.587 37.976 328.635 32.344C330.747 26.648 334.907 23.8 341.115 23.8C344.955 23.8 347.963 25.144 350.139 27.832C352.379 30.52 353.499 33.848 353.499 37.816C353.499 42.04 353.147 46.552 352.443 51.352C351.739 56.152 350.747 61.976 349.467 68.824C353.435 67.544 357.787 66.904 362.523 66.904C367.451 66.904 371.547 67.8 374.811 69.592C378.139 71.384 379.803 74.296 379.803 78.328C379.803 82.232 378.523 85.112 375.963 86.968C373.403 88.824 370.299 89.976 366.651 90.424C363.003 90.808 358.203 91 352.251 91ZM444.023 75.64C447.095 76.6 448.631 78.616 448.631 81.688C448.631 84.568 447.159 86.84 444.215 88.504C441.271 90.168 436.183 91 428.951 91C419.927 91 412.183 88.824 405.719 84.472C399.319 80.12 396.119 71.48 396.119 58.552C396.119 52.024 397.239 46.136 399.479 40.888C401.719 35.64 405.047 31.48 409.463 28.408C413.943 25.336 419.415 23.8 425.879 23.8C434.519 23.8 440.599 25.144 444.119 27.832C447.639 30.456 449.399 33.688 449.399 37.528C449.399 39.32 448.951 40.984 448.055 42.52C447.159 43.992 445.815 45.144 444.023 45.976C442.487 46.744 440.503 47.128 438.071 47.128L435.479 47.032C434.967 46.968 434.231 46.936 433.271 46.936C429.943 46.936 427.319 47.544 425.399 48.76C423.479 49.912 422.167 51.704 421.463 54.136C424.151 54.008 426.583 53.944 428.759 53.944C435.223 53.944 439.415 54.136 441.335 54.52C443.511 54.968 445.175 55.832 446.327 57.112C447.543 58.392 448.151 59.896 448.151 61.624C448.151 63.352 447.575 64.856 446.423 66.136C445.271 67.352 443.543 68.184 441.239 68.632C439.447 69.016 435.095 69.208 428.183 69.208C425.367 69.208 423.383 69.176 422.231 69.112C424.215 73.336 427.927 75.448 433.367 75.448C433.687 75.448 434.423 75.384 435.575 75.256C437.111 75.128 438.423 75.064 439.511 75.064C441.367 75.064 442.871 75.256 444.023 75.64Z"/>
</mask>
<path d="M41.176 90.904C30.552 90.84 22.584 88.216 17.272 83.032C12.024 77.848 9.4 69.432 9.4 57.784C9.4 47.224 11.96 38.936 17.08 32.92C22.2 26.84 29.432 23.8 38.776 23.8C44.536 23.8 49.56 24.664 53.848 26.392C58.136 28.12 61.432 30.584 63.736 33.784C66.04 36.984 67.192 40.76 67.192 45.112C67.192 48.568 66.424 51.64 64.888 54.328C63.416 57.016 61.208 59.416 58.264 61.528C60.632 61.912 62.68 63.192 64.408 65.368C66.2 67.544 67.096 70.072 67.096 72.952C67.096 76.024 66.264 78.936 64.6 81.688C63 84.376 60.248 86.584 56.344 88.312C52.504 90.04 47.448 90.904 41.176 90.904ZM34.552 55.096C35.704 55.672 37.144 55.96 38.872 55.96C40.92 55.96 42.68 55.48 44.152 54.52C45.688 53.496 46.456 51.992 46.456 50.008C46.456 48.088 45.688 46.648 44.152 45.688C42.68 44.664 40.888 44.152 38.776 44.152C37.112 44.152 35.704 44.44 34.552 45.016C33.656 45.4 32.984 46.072 32.536 47.032C32.088 47.992 31.864 49.016 31.864 50.104C31.864 51.192 32.088 52.216 32.536 53.176C32.984 54.072 33.656 54.712 34.552 55.096ZM34.552 77.56C35.768 78.072 37.208 78.328 38.872 78.328C40.92 78.328 42.68 77.912 44.152 77.08C45.688 76.184 46.456 74.872 46.456 73.144C46.456 71.48 45.688 70.2 44.152 69.304C42.616 68.408 40.824 67.96 38.776 67.96C37.176 67.96 35.768 68.216 34.552 68.728C33.656 69.112 32.984 69.72 32.536 70.552C32.088 71.32 31.864 72.184 31.864 73.144C31.864 74.104 32.088 75 32.536 75.832C32.984 76.6 33.656 77.176 34.552 77.56ZM119.376 91C112.208 91 106.064 89.4 100.944 86.2C95.8235 82.936 91.9515 78.616 89.3275 73.24C86.7675 67.8 85.4875 61.88 85.4875 55.48C85.4875 46.648 86.5115 39.16 88.5595 33.016C90.6075 26.872 94.6075 23.8 100.56 23.8C105.232 23.8 108.592 25.176 110.64 27.928C112.688 30.68 113.712 34.072 113.712 38.104C113.712 40.792 113.456 43.928 112.944 47.512C112.432 50.968 112.176 53.88 112.176 56.248C112.176 59.384 112.72 62.072 113.808 64.312C114.896 66.552 116.752 67.672 119.376 67.672C122.064 67.672 123.92 66.552 124.944 64.312C126.032 62.072 126.576 59.384 126.576 56.248C126.576 53.88 126.32 50.968 125.808 47.512C125.296 43.928 125.04 40.792 125.04 38.104C125.04 34.072 126.064 30.68 128.112 27.928C130.16 25.176 133.52 23.8 138.192 23.8C144.144 23.8 148.144 26.872 150.192 33.016C152.24 39.16 153.264 46.648 153.264 55.48C153.264 61.88 151.952 67.8 149.328 73.24C146.768 78.616 142.928 82.936 137.808 86.2C132.688 89.4 126.544 91 119.376 91ZM203.289 90.904C192.665 90.84 184.697 88.216 179.385 83.032C174.137 77.848 171.513 69.432 171.513 57.784C171.513 47.224 174.073 38.936 179.193 32.92C184.313 26.84 191.545 23.8 200.889 23.8C206.649 23.8 211.673 24.664 215.961 26.392C220.249 28.12 223.545 30.584 225.849 33.784C228.153 36.984 229.305 40.76 229.305 45.112C229.305 48.568 228.537 51.64 227.001 54.328C225.529 57.016 223.321 59.416 220.377 61.528C222.745 61.912 224.793 63.192 226.521 65.368C228.313 67.544 229.209 70.072 229.209 72.952C229.209 76.024 228.377 78.936 226.713 81.688C225.113 84.376 222.361 86.584 218.457 88.312C214.617 90.04 209.561 90.904 203.289 90.904ZM196.665 55.096C197.817 55.672 199.257 55.96 200.985 55.96C203.033 55.96 204.793 55.48 206.265 54.52C207.801 53.496 208.569 51.992 208.569 50.008C208.569 48.088 207.801 46.648 206.265 45.688C204.793 44.664 203.001 44.152 200.889 44.152C199.225 44.152 197.817 44.44 196.665 45.016C195.769 45.4 195.097 46.072 194.649 47.032C194.201 47.992 193.977 49.016 193.977 50.104C193.977 51.192 194.201 52.216 194.649 53.176C195.097 54.072 195.769 54.712 196.665 55.096ZM196.665 77.56C197.881 78.072 199.321 78.328 200.985 78.328C203.033 78.328 204.793 77.912 206.265 77.08C207.801 76.184 208.569 74.872 208.569 73.144C208.569 71.48 207.801 70.2 206.265 69.304C204.729 68.408 202.937 67.96 200.889 67.96C199.289 67.96 197.881 68.216 196.665 68.728C195.769 69.112 195.097 69.72 194.649 70.552C194.201 71.32 193.977 72.184 193.977 73.144C193.977 74.104 194.201 75 194.649 75.832C195.097 76.6 195.769 77.176 196.665 77.56ZM280.313 90.904C269.689 90.84 261.721 88.216 256.409 83.032C251.161 77.848 248.537 69.432 248.537 57.784C248.537 47.224 251.097 38.936 256.217 32.92C261.337 26.84 268.569 23.8 277.913 23.8C283.674 23.8 288.698 24.664 292.986 26.392C297.273 28.12 300.569 30.584 302.873 33.784C305.177 36.984 306.33 40.76 306.33 45.112C306.33 48.568 305.562 51.64 304.026 54.328C302.554 57.016 300.346 59.416 297.402 61.528C299.77 61.912 301.818 63.192 303.546 65.368C305.338 67.544 306.234 70.072 306.234 72.952C306.234 76.024 305.402 78.936 303.737 81.688C302.138 84.376 299.385 86.584 295.481 88.312C291.641 90.04 286.585 90.904 280.313 90.904ZM273.689 55.096C274.841 55.672 276.281 55.96 278.009 55.96C280.057 55.96 281.817 55.48 283.289 54.52C284.825 53.496 285.593 51.992 285.593 50.008C285.593 48.088 284.825 46.648 283.289 45.688C281.817 44.664 280.025 44.152 277.913 44.152C276.249 44.152 274.841 44.44 273.689 45.016C272.793 45.4 272.121 46.072 271.673 47.032C271.225 47.992 271.001 49.016 271.001 50.104C271.001 51.192 271.225 52.216 271.673 53.176C272.121 54.072 272.793 54.712 273.689 55.096ZM273.689 77.56C274.905 78.072 276.345 78.328 278.009 78.328C280.057 78.328 281.817 77.912 283.289 77.08C284.825 76.184 285.593 74.872 285.593 73.144C285.593 71.48 284.825 70.2 283.289 69.304C281.753 68.408 279.961 67.96 277.913 67.96C276.313 67.96 274.905 68.216 273.689 68.728C272.793 69.112 272.121 69.72 271.673 70.552C271.225 71.32 271.001 72.184 271.001 73.144C271.001 74.104 271.225 75 271.673 75.832C272.121 76.6 272.793 77.176 273.689 77.56ZM352.251 91C345.787 91 340.315 89.688 335.835 87.064C331.355 84.376 328.411 80.376 327.003 75.064C326.427 72.888 326.043 70.232 325.851 67.096C325.659 63.96 325.563 59.96 325.563 55.096C325.563 45.56 326.587 37.976 328.635 32.344C330.747 26.648 334.907 23.8 341.115 23.8C344.955 23.8 347.963 25.144 350.139 27.832C352.379 30.52 353.499 33.848 353.499 37.816C353.499 42.04 353.147 46.552 352.443 51.352C351.739 56.152 350.747 61.976 349.467 68.824C353.435 67.544 357.787 66.904 362.523 66.904C367.451 66.904 371.547 67.8 374.811 69.592C378.139 71.384 379.803 74.296 379.803 78.328C379.803 82.232 378.523 85.112 375.963 86.968C373.403 88.824 370.299 89.976 366.651 90.424C363.003 90.808 358.203 91 352.251 91ZM444.023 75.64C447.095 76.6 448.631 78.616 448.631 81.688C448.631 84.568 447.159 86.84 444.215 88.504C441.271 90.168 436.183 91 428.951 91C419.927 91 412.183 88.824 405.719 84.472C399.319 80.12 396.119 71.48 396.119 58.552C396.119 52.024 397.239 46.136 399.479 40.888C401.719 35.64 405.047 31.48 409.463 28.408C413.943 25.336 419.415 23.8 425.879 23.8C434.519 23.8 440.599 25.144 444.119 27.832C447.639 30.456 449.399 33.688 449.399 37.528C449.399 39.32 448.951 40.984 448.055 42.52C447.159 43.992 445.815 45.144 444.023 45.976C442.487 46.744 440.503 47.128 438.071 47.128L435.479 47.032C434.967 46.968 434.231 46.936 433.271 46.936C429.943 46.936 427.319 47.544 425.399 48.76C423.479 49.912 422.167 51.704 421.463 54.136C424.151 54.008 426.583 53.944 428.759 53.944C435.223 53.944 439.415 54.136 441.335 54.52C443.511 54.968 445.175 55.832 446.327 57.112C447.543 58.392 448.151 59.896 448.151 61.624C448.151 63.352 447.575 64.856 446.423 66.136C445.271 67.352 443.543 68.184 441.239 68.632C439.447 69.016 435.095 69.208 428.183 69.208C425.367 69.208 423.383 69.176 422.231 69.112C424.215 73.336 427.927 75.448 433.367 75.448C433.687 75.448 434.423 75.384 435.575 75.256C437.111 75.128 438.423 75.064 439.511 75.064C441.367 75.064 442.871 75.256 444.023 75.64Z" fill="#CFC0BD"/>
<path d="M41.176 90.904L41.173 91.404H41.176V90.904ZM17.272 83.032L16.9206 83.3877L16.9228 83.3898L17.272 83.032ZM17.08 32.92L17.4608 33.2441L17.4625 33.2421L17.08 32.92ZM53.848 26.392L54.0349 25.9282L54.0349 25.9282L53.848 26.392ZM64.888 54.328L64.4538 54.0799L64.4495 54.0878L64.888 54.328ZM58.264 61.528L57.9725 61.1217L56.9885 61.8277L58.184 62.0216L58.264 61.528ZM64.408 65.368L64.0164 65.679L64.022 65.6859L64.408 65.368ZM64.6 81.688L64.1721 81.4293L64.1704 81.4323L64.6 81.688ZM56.344 88.312L56.1416 87.8548L56.1388 87.856L56.344 88.312ZM34.552 55.096L34.7756 54.6488L34.7625 54.6422L34.749 54.6364L34.552 55.096ZM44.152 54.52L44.4252 54.9388L44.4294 54.936L44.152 54.52ZM44.152 45.688L43.8665 46.0984L43.8766 46.1055L43.887 46.112L44.152 45.688ZM34.552 45.016L34.749 45.4756L34.7625 45.4698L34.7756 45.4632L34.552 45.016ZM32.536 47.032L32.0829 46.8206L32.0829 46.8206L32.536 47.032ZM32.536 53.176L32.0827 53.3875L32.0888 53.3996L32.536 53.176ZM34.552 77.56L34.355 78.0196L34.358 78.0208L34.552 77.56ZM44.152 77.08L44.3981 77.5153L44.4039 77.5119L44.152 77.08ZM44.152 69.304L44.4039 68.8721L44.4039 68.8721L44.152 69.304ZM34.552 68.728L34.358 68.2672L34.355 68.2684L34.552 68.728ZM32.536 70.552L32.9679 70.8039L32.9722 70.7966L32.9762 70.789L32.536 70.552ZM32.536 75.832L32.0958 76.069L32.0998 76.0766L32.1041 76.0839L32.536 75.832ZM41.179 90.404C30.6286 90.3405 22.8071 87.7351 17.6212 82.6742L16.9228 83.3898C22.3609 88.6969 30.4754 91.3395 41.173 91.404L41.179 90.404ZM17.6234 82.6763C12.5131 77.6283 9.9 69.3734 9.9 57.784H8.9C8.9 69.4906 11.5349 78.0677 16.9206 83.3877L17.6234 82.6763ZM9.9 57.784C9.9 47.3024 12.4404 39.143 17.4608 33.2441L16.6992 32.5959C11.4796 38.729 8.9 47.1456 8.9 57.784H9.9ZM17.4625 33.2421C22.4704 27.2951 29.5508 24.3 38.776 24.3V23.3C29.3132 23.3 21.9296 26.3849 16.6975 32.5979L17.4625 33.2421ZM38.776 24.3C44.4872 24.3 49.4452 25.1568 53.6611 26.8558L54.0349 25.9282C49.6749 24.1712 44.5848 23.3 38.776 23.3V24.3ZM53.6611 26.8558C57.8768 28.5546 61.0904 30.9653 63.3302 34.0762L64.1418 33.4918C61.7736 30.2027 58.3952 27.6854 54.0349 25.9282L53.6611 26.8558ZM63.3302 34.0762C65.5666 37.1822 66.692 40.8534 66.692 45.112H67.692C67.692 40.6666 66.5134 36.7858 64.1418 33.4918L63.3302 34.0762ZM66.692 45.112C66.692 48.4913 65.9419 51.476 64.4539 54.0799L65.3221 54.5761C66.9062 51.804 67.692 48.6447 67.692 45.112H66.692ZM64.4495 54.0878C63.0194 56.6992 60.8667 59.0455 57.9725 61.1217L58.5555 61.9343C61.5493 59.7865 63.8126 57.3328 65.3266 54.5682L64.4495 54.0878ZM58.184 62.0216C60.4097 62.3825 62.3528 63.584 64.0164 65.6789L64.7996 65.0571C63.0072 62.8 60.8543 61.4415 58.344 61.0344L58.184 62.0216ZM64.022 65.6859C65.7386 67.7702 66.596 70.1852 66.596 72.952H67.596C67.596 69.9588 66.6614 67.3178 64.794 65.0501L64.022 65.6859ZM66.596 72.952C66.596 75.9284 65.7913 78.7515 64.1721 81.4293L65.0279 81.9467C66.7367 79.1205 67.596 76.1196 67.596 72.952H66.596ZM64.1704 81.4323C62.6396 84.0039 59.9847 86.1538 56.1416 87.8548L56.5464 88.7692C60.5113 87.0142 63.3604 84.7481 65.0296 81.9437L64.1704 81.4323ZM56.1388 87.856C52.387 89.5444 47.4088 90.404 41.176 90.404V91.404C47.4872 91.404 52.621 90.5356 56.5492 88.768L56.1388 87.856ZM34.3284 55.5432C35.5694 56.1637 37.0917 56.46 38.872 56.46V55.46C37.1963 55.46 35.8386 55.1803 34.7756 54.6488L34.3284 55.5432ZM38.872 56.46C41.0006 56.46 42.8592 55.9601 44.4251 54.9388L43.8789 54.1012C42.5008 54.9999 40.8394 55.46 38.872 55.46V56.46ZM44.4294 54.936C46.1164 53.8114 46.956 52.1443 46.956 50.008H45.956C45.956 51.8397 45.2596 53.1806 43.8747 54.104L44.4294 54.936ZM46.956 50.008C46.956 47.9281 46.1095 46.3218 44.417 45.264L43.887 46.112C45.2665 46.9742 45.956 48.2479 45.956 50.008H46.956ZM44.4375 45.2775C42.8676 44.1854 40.9715 43.652 38.776 43.652V44.652C40.8045 44.652 42.4924 45.1425 43.8665 46.0984L44.4375 45.2775ZM38.776 43.652C37.0563 43.652 35.5671 43.9494 34.3284 44.5688L34.7756 45.4632C35.8409 44.9305 37.1677 44.652 38.776 44.652V43.652ZM34.355 44.5564C33.3359 44.9932 32.578 45.7596 32.0829 46.8206L32.9891 47.2434C33.39 46.3843 33.9761 45.8068 34.749 45.4756L34.355 44.5564ZM32.0829 46.8206C31.6032 47.8486 31.364 48.945 31.364 50.104H32.364C32.364 49.087 32.5728 48.1354 32.9891 47.2434L32.0829 46.8206ZM31.364 50.104C31.364 51.263 31.6032 52.3594 32.0829 53.3874L32.9891 52.9646C32.5728 52.0726 32.364 51.121 32.364 50.104H31.364ZM32.0888 53.3996C32.5881 54.3982 33.3471 55.1236 34.355 55.5556L34.749 54.6364C33.9649 54.3004 33.3799 53.7458 32.9832 52.9524L32.0888 53.3996ZM34.358 78.0208C35.6492 78.5645 37.1581 78.828 38.872 78.828V77.828C37.2579 77.828 35.8868 77.5795 34.746 77.0992L34.358 78.0208ZM38.872 78.828C40.9881 78.828 42.8366 78.3978 44.398 77.5153L43.906 76.6447C42.5234 77.4262 40.8519 77.828 38.872 77.828V78.828ZM44.4039 77.5119C46.088 76.5295 46.956 75.0561 46.956 73.144H45.956C45.956 74.6879 45.288 75.8385 43.9001 76.6481L44.4039 77.5119ZM46.956 73.144C46.956 71.2878 46.0807 69.8502 44.4039 68.8721L43.9001 69.7359C45.2953 70.5498 45.956 71.6722 45.956 73.144H46.956ZM44.4039 68.8721C42.7805 67.9251 40.8989 67.46 38.776 67.46V68.46C40.7491 68.46 42.4515 68.8909 43.9001 69.7359L44.4039 68.8721ZM38.776 67.46C37.1232 67.46 35.647 67.7244 34.358 68.2672L34.746 69.1888C35.889 68.7076 37.2288 68.46 38.776 68.46V67.46ZM34.355 68.2684C33.3587 68.6954 32.5992 69.3801 32.0958 70.3149L32.9762 70.789C33.3688 70.0599 33.9533 69.5286 34.749 69.1876L34.355 68.2684ZM32.1041 70.3001C31.608 71.1506 31.364 72.1028 31.364 73.144H32.364C32.364 72.2652 32.568 71.4894 32.9679 70.8039L32.1041 70.3001ZM31.364 73.144C31.364 74.1854 31.6079 75.163 32.0958 76.069L32.9762 75.5949C32.5681 74.837 32.364 74.0226 32.364 73.144H31.364ZM32.1041 76.0839C32.6114 76.9535 33.3705 77.5976 34.355 78.0196L34.749 77.1004C33.9415 76.7544 33.3566 76.2465 32.9679 75.5801L32.1041 76.0839ZM100.944 86.2L100.675 86.6216L100.679 86.624L100.944 86.2ZM89.3275 73.24L88.875 73.4529L88.8782 73.4593L89.3275 73.24ZM88.5595 33.016L89.0338 33.1741L89.0338 33.1741L88.5595 33.016ZM110.64 27.928L110.238 28.2265L110.238 28.2265L110.64 27.928ZM112.944 47.512L113.438 47.5853L113.438 47.5827L112.944 47.512ZM113.808 64.312L114.257 64.0935L114.257 64.0935L113.808 64.312ZM124.944 64.312L124.494 64.0935L124.489 64.1041L124.944 64.312ZM125.808 47.512L125.313 47.5827L125.313 47.5853L125.808 47.512ZM128.112 27.928L128.513 28.2265L128.513 28.2265L128.112 27.928ZM150.192 33.016L150.666 32.8579L150.666 32.8579L150.192 33.016ZM149.328 73.24L148.877 73.0228L148.876 73.025L149.328 73.24ZM137.808 86.2L138.073 86.624L138.076 86.6216L137.808 86.2ZM119.376 90.5C112.283 90.5 106.235 88.9177 101.209 85.776L100.679 86.624C105.892 89.8823 112.132 91.5 119.376 91.5V90.5ZM101.212 85.7784C96.1687 82.5631 92.3598 78.3126 89.7768 73.0207L88.8782 73.4593C91.5432 78.9194 95.4783 83.3089 100.675 86.6216L101.212 85.7784ZM89.7799 73.0271C87.2533 67.6579 85.9875 61.8112 85.9875 55.48H84.9875C84.9875 61.9488 86.2818 67.9421 88.8751 73.4529L89.7799 73.0271ZM85.9875 55.48C85.9875 46.6836 87.0078 39.2524 89.0338 33.1741L88.0852 32.8579C86.0152 39.0676 84.9875 46.6124 84.9875 55.48H85.9875ZM89.0338 33.1741C90.0352 30.17 91.4989 27.9606 93.4001 26.5005C95.2977 25.0432 97.6731 24.3 100.56 24.3V23.3C97.4939 23.3 94.8933 24.0928 92.791 25.7074C90.6921 27.3194 89.1318 29.718 88.0852 32.8579L89.0338 33.1741ZM100.56 24.3C105.135 24.3 108.316 25.6437 110.238 28.2265L111.041 27.6295C108.867 24.7083 105.328 23.3 100.56 23.3V24.3ZM110.238 28.2265C112.211 30.8778 113.212 34.16 113.212 38.104H114.212C114.212 33.984 113.164 30.4822 111.041 27.6295L110.238 28.2265ZM113.212 38.104C113.212 40.7618 112.958 43.8732 112.449 47.4413L113.438 47.5827C113.953 43.9828 114.212 40.8222 114.212 38.104H113.212ZM112.449 47.4387C111.935 50.9087 111.676 53.8469 111.676 56.248H112.676C112.676 53.9131 112.928 51.0273 113.438 47.5853L112.449 47.4387ZM111.676 56.248C111.676 59.4406 112.229 62.2071 113.358 64.5304L114.257 64.0935C113.21 61.9369 112.676 59.3274 112.676 56.248H111.676ZM113.358 64.5304C113.938 65.7241 114.735 66.6431 115.757 67.2601C116.778 67.8762 117.992 68.172 119.376 68.172V67.172C118.135 67.172 117.109 66.9078 116.274 66.4039C115.44 65.9009 114.765 65.1399 114.257 64.0935L113.358 64.5304ZM119.376 68.172C120.789 68.172 122.019 67.8772 123.042 67.2601C124.067 66.6412 124.85 65.7185 125.398 64.5199L124.489 64.1041C124.013 65.1455 123.356 65.9027 122.525 66.4039C121.692 66.9068 120.65 67.172 119.376 67.172V68.172ZM125.393 64.5304C126.522 62.2071 127.076 59.4406 127.076 56.248H126.076C126.076 59.3274 125.541 61.9369 124.494 64.0935L125.393 64.5304ZM127.076 56.248C127.076 53.8469 126.816 50.9087 126.302 47.4387L125.313 47.5853C125.823 51.0273 126.076 53.9131 126.076 56.248H127.076ZM126.302 47.4413C125.793 43.8732 125.54 40.7618 125.54 38.104H124.54C124.54 40.8222 124.798 43.9828 125.313 47.5827L126.302 47.4413ZM125.54 38.104C125.54 34.16 126.54 30.8778 128.513 28.2265L127.71 27.6295C125.587 30.4822 124.54 33.984 124.54 38.104H125.54ZM128.513 28.2265C130.435 25.6437 133.616 24.3 138.192 24.3V23.3C133.423 23.3 129.884 24.7083 127.71 27.6295L128.513 28.2265ZM138.192 24.3C141.078 24.3 143.453 25.0432 145.351 26.5005C147.252 27.9606 148.716 30.17 149.717 33.1741L150.666 32.8579C149.619 29.718 148.059 27.3194 145.96 25.7074C143.858 24.0928 141.257 23.3 138.192 23.3V24.3ZM149.717 33.1741C151.743 39.2524 152.764 46.6836 152.764 55.48H153.764C153.764 46.6124 152.736 39.0676 150.666 32.8579L149.717 33.1741ZM152.764 55.48C152.764 61.8094 151.467 67.6545 148.877 73.0228L149.778 73.4572C152.436 67.9455 153.764 61.9506 153.764 55.48H152.764ZM148.876 73.025C146.357 78.3146 142.581 82.5637 137.539 85.7784L138.076 86.6216C143.274 83.3083 147.178 78.9174 149.779 73.455L148.876 73.025ZM137.543 85.776C132.516 88.9177 126.468 90.5 119.376 90.5V91.5C126.619 91.5 132.859 89.8823 138.073 86.624L137.543 85.776ZM203.289 90.904L203.285 91.404H203.289V90.904ZM179.385 83.032L179.033 83.3877L179.035 83.3898L179.385 83.032ZM179.193 32.92L179.573 33.2441L179.575 33.2421L179.193 32.92ZM215.961 26.392L216.147 25.9282L216.147 25.9282L215.961 26.392ZM227.001 54.328L226.566 54.0799L226.562 54.0878L227.001 54.328ZM220.377 61.528L220.085 61.1217L219.101 61.8277L220.296 62.0216L220.377 61.528ZM226.521 65.368L226.129 65.679L226.135 65.6859L226.521 65.368ZM226.713 81.688L226.285 81.4293L226.283 81.4323L226.713 81.688ZM218.457 88.312L218.254 87.8548L218.251 87.856L218.457 88.312ZM196.665 55.096L196.888 54.6488L196.875 54.6422L196.861 54.6364L196.665 55.096ZM206.265 54.52L206.538 54.9388L206.542 54.936L206.265 54.52ZM206.265 45.688L205.979 46.0984L205.989 46.1055L206 46.112L206.265 45.688ZM196.665 45.016L196.861 45.4756L196.875 45.4698L196.888 45.4632L196.665 45.016ZM194.649 47.032L194.195 46.8206L194.195 46.8206L194.649 47.032ZM194.649 53.176L194.195 53.3875L194.201 53.3996L194.649 53.176ZM196.665 77.56L196.468 78.0196L196.47 78.0208L196.665 77.56ZM206.265 77.08L206.511 77.5153L206.516 77.5119L206.265 77.08ZM206.265 69.304L206.516 68.8721L206.516 68.8721L206.265 69.304ZM196.665 68.728L196.47 68.2672L196.468 68.2684L196.665 68.728ZM194.649 70.552L195.08 70.8039L195.085 70.7966L195.089 70.789L194.649 70.552ZM194.649 75.832L194.208 76.069L194.212 76.0766L194.217 76.0839L194.649 75.832ZM203.292 90.404C192.741 90.3405 184.92 87.7351 179.734 82.6742L179.035 83.3898C184.473 88.6969 192.588 91.3395 203.285 91.404L203.292 90.404ZM179.736 82.6763C174.626 77.6283 172.013 69.3734 172.013 57.784H171.013C171.013 69.4906 173.647 78.0677 179.033 83.3877L179.736 82.6763ZM172.013 57.784C172.013 47.3024 174.553 39.143 179.573 33.2441L178.812 32.5959C173.592 38.729 171.013 47.1456 171.013 57.784H172.013ZM179.575 33.2421C184.583 27.2951 191.663 24.3 200.889 24.3V23.3C191.426 23.3 184.042 26.3849 178.81 32.5979L179.575 33.2421ZM200.889 24.3C206.6 24.3 211.558 25.1568 215.774 26.8558L216.147 25.9282C211.787 24.1712 206.697 23.3 200.889 23.3V24.3ZM215.774 26.8558C219.989 28.5546 223.203 30.9653 225.443 34.0762L226.254 33.4918C223.886 30.2027 220.508 27.6854 216.147 25.9282L215.774 26.8558ZM225.443 34.0762C227.679 37.1822 228.805 40.8534 228.805 45.112H229.805C229.805 40.6666 228.626 36.7858 226.254 33.4918L225.443 34.0762ZM228.805 45.112C228.805 48.4913 228.054 51.476 226.566 54.0799L227.435 54.5761C229.019 51.804 229.805 48.6447 229.805 45.112H228.805ZM226.562 54.0878C225.132 56.6992 222.979 59.0455 220.085 61.1217L220.668 61.9343C223.662 59.7865 225.925 57.3328 227.439 54.5682L226.562 54.0878ZM220.296 62.0216C222.522 62.3825 224.465 63.584 226.129 65.6789L226.912 65.0571C225.12 62.8 222.967 61.4415 220.457 61.0344L220.296 62.0216ZM226.135 65.6859C227.851 67.7702 228.709 70.1852 228.709 72.952H229.709C229.709 69.9588 228.774 67.3178 226.906 65.0501L226.135 65.6859ZM228.709 72.952C228.709 75.9284 227.904 78.7515 226.285 81.4293L227.14 81.9467C228.849 79.1205 229.709 76.1196 229.709 72.952H228.709ZM226.283 81.4323C224.752 84.0039 222.097 86.1538 218.254 87.8548L218.659 88.7692C222.624 87.0142 225.473 84.7481 227.142 81.9437L226.283 81.4323ZM218.251 87.856C214.499 89.5444 209.521 90.404 203.289 90.404V91.404C209.6 91.404 214.734 90.5356 218.662 88.768L218.251 87.856ZM196.441 55.5432C197.682 56.1637 199.204 56.46 200.985 56.46V55.46C199.309 55.46 197.951 55.1803 196.888 54.6488L196.441 55.5432ZM200.985 56.46C203.113 56.46 204.972 55.9601 206.538 54.9388L205.991 54.1012C204.613 54.9999 202.952 55.46 200.985 55.46V56.46ZM206.542 54.936C208.229 53.8114 209.069 52.1443 209.069 50.008H208.069C208.069 51.8397 207.372 53.1806 205.987 54.104L206.542 54.936ZM209.069 50.008C209.069 47.9281 208.222 46.3218 206.53 45.264L206 46.112C207.379 46.9742 208.069 48.2479 208.069 50.008H209.069ZM206.55 45.2775C204.98 44.1854 203.084 43.652 200.889 43.652V44.652C202.917 44.652 204.605 45.1425 205.979 46.0984L206.55 45.2775ZM200.889 43.652C199.169 43.652 197.68 43.9494 196.441 44.5688L196.888 45.4632C197.953 44.9305 199.28 44.652 200.889 44.652V43.652ZM196.468 44.5564C195.448 44.9932 194.691 45.7596 194.195 46.8206L195.102 47.2434C195.503 46.3843 196.089 45.8068 196.861 45.4756L196.468 44.5564ZM194.195 46.8206C193.716 47.8486 193.477 48.945 193.477 50.104H194.477C194.477 49.087 194.685 48.1354 195.102 47.2434L194.195 46.8206ZM193.477 50.104C193.477 51.263 193.716 52.3594 194.195 53.3874L195.102 52.9646C194.685 52.0726 194.477 51.121 194.477 50.104H193.477ZM194.201 53.3996C194.701 54.3982 195.46 55.1236 196.468 55.5556L196.861 54.6364C196.077 54.3004 195.492 53.7458 195.096 52.9524L194.201 53.3996ZM196.47 78.0208C197.762 78.5645 199.271 78.828 200.985 78.828V77.828C199.37 77.828 197.999 77.5795 196.859 77.0992L196.47 78.0208ZM200.985 78.828C203.101 78.828 204.949 78.3978 206.511 77.5153L206.018 76.6447C204.636 77.4262 202.964 77.828 200.985 77.828V78.828ZM206.516 77.5119C208.201 76.5295 209.069 75.0561 209.069 73.144H208.069C208.069 74.6879 207.4 75.8385 206.013 76.6481L206.516 77.5119ZM209.069 73.144C209.069 71.2878 208.193 69.8502 206.516 68.8721L206.013 69.7359C207.408 70.5498 208.069 71.6722 208.069 73.144H209.069ZM206.516 68.8721C204.893 67.9251 203.011 67.46 200.889 67.46V68.46C202.862 68.46 204.564 68.8909 206.013 69.7359L206.516 68.8721ZM200.889 67.46C199.236 67.46 197.759 67.7244 196.47 68.2672L196.859 69.1888C198.002 68.7076 199.341 68.46 200.889 68.46V67.46ZM196.468 68.2684C195.471 68.6954 194.712 69.3801 194.208 70.3149L195.089 70.789C195.481 70.0599 196.066 69.5286 196.861 69.1876L196.468 68.2684ZM194.217 70.3001C193.72 71.1506 193.477 72.1028 193.477 73.144H194.477C194.477 72.2652 194.681 71.4894 195.08 70.8039L194.217 70.3001ZM193.477 73.144C193.477 74.1854 193.72 75.163 194.208 76.069L195.089 75.5949C194.681 74.837 194.477 74.0226 194.477 73.144H193.477ZM194.217 76.0839C194.724 76.9535 195.483 77.5976 196.468 78.0196L196.861 77.1004C196.054 76.7544 195.469 76.2465 195.08 75.5801L194.217 76.0839ZM280.313 90.904L280.31 91.404H280.313V90.904ZM256.409 83.032L256.058 83.3877L256.06 83.3898L256.409 83.032ZM256.217 32.92L256.598 33.2441L256.6 33.2421L256.217 32.92ZM292.986 26.392L293.172 25.9282L293.172 25.9282L292.986 26.392ZM304.026 54.328L303.591 54.0799L303.587 54.0878L304.026 54.328ZM297.402 61.528L297.11 61.1217L296.126 61.8277L297.321 62.0216L297.402 61.528ZM303.546 65.368L303.154 65.679L303.16 65.6859L303.546 65.368ZM303.737 81.688L303.31 81.4293L303.308 81.4323L303.737 81.688ZM295.481 88.312L295.279 87.8548L295.276 87.856L295.481 88.312ZM273.689 55.096L273.913 54.6488L273.9 54.6422L273.886 54.6364L273.689 55.096ZM283.289 54.52L283.563 54.9388L283.567 54.936L283.289 54.52ZM283.289 45.688L283.004 46.0984L283.014 46.1055L283.024 46.112L283.289 45.688ZM273.689 45.016L273.886 45.4756L273.9 45.4698L273.913 45.4632L273.689 45.016ZM271.673 47.032L271.22 46.8206L271.22 46.8206L271.673 47.032ZM271.673 53.176L271.22 53.3875L271.226 53.3996L271.673 53.176ZM273.689 77.56L273.493 78.0196L273.495 78.0208L273.689 77.56ZM283.289 77.08L283.536 77.5153L283.541 77.5119L283.289 77.08ZM283.289 69.304L283.541 68.8721L283.541 68.8721L283.289 69.304ZM273.689 68.728L273.495 68.2672L273.493 68.2684L273.689 68.728ZM271.673 70.552L272.105 70.8039L272.11 70.7966L272.114 70.789L271.673 70.552ZM271.673 75.832L271.233 76.069L271.237 76.0766L271.242 76.0839L271.673 75.832ZM280.317 90.404C269.766 90.3405 261.945 87.7351 256.759 82.6742L256.06 83.3898C261.498 88.6969 269.613 91.3395 280.31 91.404L280.317 90.404ZM256.761 82.6763C251.651 77.6283 249.037 69.3734 249.037 57.784H248.037C248.037 69.4906 250.672 78.0677 256.058 83.3877L256.761 82.6763ZM249.037 57.784C249.037 47.3024 251.578 39.143 256.598 33.2441L255.837 32.5959C250.617 38.729 248.037 47.1456 248.037 57.784H249.037ZM256.6 33.2421C261.608 27.2951 268.688 24.3 277.913 24.3V23.3C268.451 23.3 261.067 26.3849 255.835 32.5979L256.6 33.2421ZM277.913 24.3C283.625 24.3 288.583 25.1568 292.799 26.8558L293.172 25.9282C288.812 24.1712 283.722 23.3 277.913 23.3V24.3ZM292.799 26.8558C297.014 28.5546 300.228 30.9653 302.468 34.0762L303.279 33.4918C300.911 30.2027 297.533 27.6854 293.172 25.9282L292.799 26.8558ZM302.468 34.0762C304.704 37.1822 305.83 40.8534 305.83 45.112H306.83C306.83 40.6666 305.651 36.7858 303.279 33.4918L302.468 34.0762ZM305.83 45.112C305.83 48.4913 305.079 51.476 303.591 54.0799L304.46 54.5761C306.044 51.804 306.83 48.6447 306.83 45.112H305.83ZM303.587 54.0878C302.157 56.6992 300.004 59.0455 297.11 61.1217L297.693 61.9343C300.687 59.7865 302.95 57.3328 304.464 54.5682L303.587 54.0878ZM297.321 62.0216C299.547 62.3825 301.49 63.584 303.154 65.6789L303.937 65.0571C302.145 62.8 299.992 61.4415 297.482 61.0344L297.321 62.0216ZM303.16 65.6859C304.876 67.7702 305.734 70.1852 305.734 72.952H306.734C306.734 69.9588 305.799 67.3178 303.931 65.0501L303.16 65.6859ZM305.734 72.952C305.734 75.9284 304.929 78.7515 303.31 81.4293L304.165 81.9467C305.874 79.1205 306.734 76.1196 306.734 72.952H305.734ZM303.308 81.4323C301.777 84.0039 299.122 86.1538 295.279 87.8548L295.684 88.7692C299.649 87.0142 302.498 84.7481 304.167 81.9437L303.308 81.4323ZM295.276 87.856C291.524 89.5444 286.546 90.404 280.313 90.404V91.404C286.625 91.404 291.759 90.5356 295.687 88.768L295.276 87.856ZM273.466 55.5432C274.707 56.1637 276.229 56.46 278.009 56.46V55.46C276.334 55.46 274.976 55.1803 273.913 54.6488L273.466 55.5432ZM278.009 56.46C280.138 56.46 281.997 55.9601 283.563 54.9388L283.016 54.1012C281.638 54.9999 279.977 55.46 278.009 55.46V56.46ZM283.567 54.936C285.254 53.8114 286.093 52.1443 286.093 50.008H285.093C285.093 51.8397 284.397 53.1806 283.012 54.104L283.567 54.936ZM286.093 50.008C286.093 47.9281 285.247 46.3218 283.554 45.264L283.024 46.112C284.404 46.9742 285.093 48.2479 285.093 50.008H286.093ZM283.575 45.2775C282.005 44.1854 280.109 43.652 277.913 43.652V44.652C279.942 44.652 281.63 45.1425 283.004 46.0984L283.575 45.2775ZM277.913 43.652C276.194 43.652 274.705 43.9494 273.466 44.5688L273.913 45.4632C274.978 44.9305 276.305 44.652 277.913 44.652V43.652ZM273.493 44.5564C272.473 44.9932 271.715 45.7596 271.22 46.8206L272.127 47.2434C272.527 46.3843 273.114 45.8068 273.886 45.4756L273.493 44.5564ZM271.22 46.8206C270.741 47.8486 270.501 48.945 270.501 50.104H271.501C271.501 49.087 271.71 48.1354 272.127 47.2434L271.22 46.8206ZM270.501 50.104C270.501 51.263 270.741 52.3594 271.22 53.3874L272.127 52.9646C271.71 52.0726 271.501 51.121 271.501 50.104H270.501ZM271.226 53.3996C271.726 54.3982 272.485 55.1236 273.493 55.5556L273.886 54.6364C273.102 54.3004 272.517 53.7458 272.121 52.9524L271.226 53.3996ZM273.495 78.0208C274.787 78.5645 276.296 78.828 278.009 78.828V77.828C276.395 77.828 275.024 77.5795 273.884 77.0992L273.495 78.0208ZM278.009 78.828C280.126 78.828 281.974 78.3978 283.536 77.5153L283.043 76.6447C281.661 77.4262 279.989 77.828 278.009 77.828V78.828ZM283.541 77.5119C285.226 76.5295 286.093 75.0561 286.093 73.144H285.093C285.093 74.6879 284.425 75.8385 283.038 76.6481L283.541 77.5119ZM286.093 73.144C286.093 71.2878 285.218 69.8502 283.541 68.8721L283.038 69.7359C284.433 70.5498 285.093 71.6722 285.093 73.144H286.093ZM283.541 68.8721C281.918 67.9251 280.036 67.46 277.913 67.46V68.46C279.887 68.46 281.589 68.8909 283.038 69.7359L283.541 68.8721ZM277.913 67.46C276.261 67.46 274.784 67.7244 273.495 68.2672L273.884 69.1888C275.027 68.7076 276.366 68.46 277.913 68.46V67.46ZM273.493 68.2684C272.496 68.6954 271.737 69.3801 271.233 70.3149L272.114 70.789C272.506 70.0599 273.091 69.5286 273.886 69.1876L273.493 68.2684ZM271.242 70.3001C270.745 71.1506 270.501 72.1028 270.501 73.144H271.501C271.501 72.2652 271.706 71.4894 272.105 70.8039L271.242 70.3001ZM270.501 73.144C270.501 74.1854 270.745 75.163 271.233 76.069L272.114 75.5949C271.706 74.837 271.501 74.0226 271.501 73.144H270.501ZM271.242 76.0839C271.749 76.9535 272.508 77.5976 273.493 78.0196L273.886 77.1004C273.079 76.7544 272.494 76.2465 272.105 75.5801L271.242 76.0839ZM335.835 87.064L335.577 87.4928L335.582 87.4954L335.835 87.064ZM327.003 75.064L326.519 75.1919L326.519 75.1921L327.003 75.064ZM325.851 67.096L326.35 67.0654L326.35 67.0654L325.851 67.096ZM328.635 32.344L328.166 32.1702L328.165 32.1731L328.635 32.344ZM350.139 27.832L349.75 28.1466L349.754 28.1521L350.139 27.832ZM352.443 51.352L352.937 51.4246L352.937 51.4246L352.443 51.352ZM349.467 68.824L348.975 68.7321L348.821 69.5577L349.62 69.2999L349.467 68.824ZM374.811 69.592L374.57 70.0303L374.573 70.0322L374.811 69.592ZM375.963 86.968L375.669 86.5632L375.669 86.5632L375.963 86.968ZM366.651 90.424L366.703 90.9213L366.711 90.9203L366.651 90.424ZM352.251 90.5C345.854 90.5 340.474 89.2019 336.087 86.6326L335.582 87.4954C340.155 90.1741 345.719 91.5 352.251 91.5V90.5ZM336.092 86.6353C331.73 84.018 328.862 80.1293 327.486 74.9359L326.519 75.1921C327.959 80.6227 330.979 84.734 335.577 87.4927L336.092 86.6353ZM327.486 74.9361C326.921 72.8016 326.54 70.1804 326.35 67.0654L325.351 67.1266C325.545 70.2836 325.932 72.9744 326.519 75.1919L327.486 74.9361ZM326.35 67.0654C326.158 63.9435 326.063 59.9547 326.063 55.096H325.063C325.063 59.9653 325.159 63.9765 325.351 67.1266L326.35 67.0654ZM326.063 55.096C326.063 45.588 327.085 38.0695 329.104 32.5149L328.165 32.1731C326.088 37.8825 325.063 45.532 325.063 55.096H326.063ZM329.103 32.5178C330.131 29.7465 331.643 27.703 333.621 26.3486C335.6 24.9935 338.088 24.3 341.115 24.3V23.3C337.933 23.3 335.237 24.0305 333.056 25.5234C330.874 27.017 329.25 29.2455 328.166 32.1702L329.103 32.5178ZM341.115 24.3C344.823 24.3 347.68 25.5898 349.75 28.1466L350.527 27.5174C348.245 24.6982 345.086 23.3 341.115 23.3V24.3ZM349.754 28.1521C351.91 30.7382 352.999 33.9483 352.999 37.816H353.999C353.999 33.7477 352.847 30.3018 350.523 27.5119L349.754 28.1521ZM352.999 37.816C352.999 42.0125 352.649 46.5 351.948 51.2794L352.937 51.4246C353.644 46.604 353.999 42.0675 353.999 37.816H352.999ZM351.948 51.2794C351.245 56.0709 350.254 61.888 348.975 68.7321L349.958 68.9159C351.239 62.064 352.232 56.2331 352.937 51.4246L351.948 51.2794ZM349.62 69.2999C353.532 68.0379 357.832 67.404 362.523 67.404V66.404C357.741 66.404 353.337 67.0501 349.313 68.3481L349.62 69.2999ZM362.523 67.404C367.393 67.404 371.4 68.2898 374.57 70.0303L375.051 69.1537C371.693 67.3102 367.508 66.404 362.523 66.404V67.404ZM374.573 70.0322C376.166 70.8897 377.341 72.0033 378.12 73.3681C378.901 74.7346 379.303 76.3814 379.303 78.328H380.303C380.303 76.2426 379.872 74.4174 378.989 72.8719C378.105 71.3247 376.783 70.0863 375.048 69.1518L374.573 70.0322ZM379.303 78.328C379.303 82.1139 378.069 84.8235 375.669 86.5632L376.256 87.3728C378.976 85.4005 380.303 82.3501 380.303 78.328H379.303ZM375.669 86.5632C373.188 88.362 370.167 89.4884 366.59 89.9277L366.711 90.9203C370.43 90.4636 373.617 89.286 376.256 87.3728L375.669 86.5632ZM366.598 89.9267C362.975 90.3081 358.194 90.5 352.251 90.5V91.5C358.211 91.5 363.03 91.3079 366.703 90.9213L366.598 89.9267ZM444.023 75.64L443.865 76.1144L443.874 76.1172L444.023 75.64ZM444.215 88.504L443.969 88.0687L444.215 88.504ZM405.719 84.472L405.438 84.8855L405.44 84.8868L405.719 84.472ZM399.479 40.888L399.939 41.0843L399.939 41.0843L399.479 40.888ZM409.463 28.408L409.18 27.9956L409.177 27.9975L409.463 28.408ZM444.119 27.832L443.815 28.2294L443.82 28.2329L444.119 27.832ZM448.055 42.52L448.482 42.78L448.487 42.7719L448.055 42.52ZM444.023 45.976L443.812 45.5225L443.806 45.5255L443.799 45.5288L444.023 45.976ZM438.071 47.128L438.052 47.6277L438.061 47.628H438.071V47.128ZM435.479 47.032L435.417 47.5281L435.438 47.5308L435.46 47.5317L435.479 47.032ZM425.399 48.76L425.656 49.1889L425.666 49.1824L425.399 48.76ZM421.463 54.136L420.982 53.997L420.788 54.6687L421.487 54.6354L421.463 54.136ZM441.335 54.52L441.436 54.0303L441.433 54.0297L441.335 54.52ZM446.327 57.112L445.955 57.4466L445.964 57.4564L446.327 57.112ZM446.423 66.136L446.786 66.48L446.794 66.4705L446.423 66.136ZM441.239 68.632L441.143 68.1411L441.134 68.1431L441.239 68.632ZM422.231 69.112L422.258 68.6128L421.422 68.5663L421.778 69.3246L422.231 69.112ZM435.575 75.256L435.533 74.7575L435.52 74.7591L435.575 75.256ZM443.874 76.1172C445.337 76.5747 446.391 77.2693 447.081 78.175C447.77 79.0787 448.131 80.2376 448.131 81.688H449.131C449.131 80.0664 448.724 78.6813 447.876 77.569C447.031 76.4587 445.78 75.6653 444.172 75.1628L443.874 76.1172ZM448.131 81.688C448.131 84.3531 446.788 86.475 443.969 88.0687L444.461 88.9393C447.529 87.205 449.131 84.7829 449.131 81.688H448.131ZM443.969 88.0687C441.146 89.6639 436.174 90.5 428.951 90.5V91.5C436.192 91.5 441.395 90.6721 444.461 88.9393L443.969 88.0687ZM428.951 90.5C420.01 90.5 412.367 88.3453 405.998 84.0572L405.44 84.8868C411.998 89.3027 419.843 91.5 428.951 91.5V90.5ZM406 84.0585C399.809 79.8485 396.619 71.4262 396.619 58.552H395.619C395.619 71.5338 398.829 80.3915 405.438 84.8855L406 84.0585ZM396.619 58.552C396.619 52.0818 397.729 46.2619 399.939 41.0843L399.019 40.6917C396.749 46.0101 395.619 51.9662 395.619 58.552H396.619ZM399.939 41.0843C402.144 35.9171 405.414 31.8335 409.748 28.8185L409.177 27.9975C404.679 31.1265 401.293 35.3629 399.019 40.6917L399.939 41.0843ZM409.746 28.8204C414.127 25.8156 419.496 24.3 425.879 24.3V23.3C419.333 23.3 413.758 24.8564 409.18 27.9956L409.746 28.8204ZM425.879 24.3C434.498 24.3 440.433 25.6468 443.815 28.2294L444.422 27.4346C440.764 24.6412 434.54 23.3 425.879 23.3V24.3ZM443.82 28.2329C447.234 30.778 448.899 33.8701 448.899 37.528H449.899C449.899 33.5059 448.043 30.134 444.418 27.4311L443.82 28.2329ZM448.899 37.528C448.899 39.2322 448.474 40.8092 447.623 42.2681L448.487 42.7719C449.428 41.1588 449.899 39.4078 449.899 37.528H448.899ZM447.628 42.26C446.79 43.6356 445.528 44.7259 443.812 45.5225L444.233 46.4295C446.102 45.5621 447.527 44.3484 448.482 42.78L447.628 42.26ZM443.799 45.5288C442.355 46.2507 440.455 46.628 438.071 46.628V47.628C440.55 47.628 442.618 47.2373 444.246 46.4232L443.799 45.5288ZM438.089 46.6283L435.497 46.5323L435.46 47.5317L438.052 47.6277L438.089 46.6283ZM435.541 46.5359C434.998 46.468 434.237 46.436 433.271 46.436V47.436C434.224 47.436 434.936 47.468 435.417 47.5281L435.541 46.5359ZM433.271 46.436C429.889 46.436 427.16 47.0525 425.131 48.3376L425.666 49.1824C427.477 48.0354 429.996 47.436 433.271 47.436V46.436ZM425.142 48.3313C423.099 49.5568 421.717 51.4608 420.982 53.997L421.943 54.275C422.617 51.9472 423.859 50.2672 425.656 49.1887L425.142 48.3313ZM421.487 54.6354C424.168 54.5077 426.592 54.444 428.759 54.444V53.444C426.573 53.444 424.133 53.5083 421.439 53.6366L421.487 54.6354ZM428.759 54.444C435.235 54.444 439.374 54.6378 441.237 55.0103L441.433 54.0297C439.455 53.6342 435.211 53.444 428.759 53.444V54.444ZM441.234 55.0097C443.336 55.4425 444.893 56.2661 445.955 57.4465L446.698 56.7775C445.457 55.3979 443.686 54.4935 441.436 54.0303L441.234 55.0097ZM445.964 57.4564C447.094 58.6457 447.651 60.0272 447.651 61.624H448.651C448.651 59.7648 447.991 58.1383 446.689 56.7676L445.964 57.4564ZM447.651 61.624C447.651 63.2289 447.12 64.6137 446.051 65.8015L446.794 66.4705C448.029 65.0983 448.651 63.475 448.651 61.624H447.651ZM446.06 65.7921C445.003 66.9075 443.385 67.7053 441.143 68.1412L441.334 69.1228C443.701 68.6627 445.538 67.7965 446.786 66.4799L446.06 65.7921ZM441.134 68.1431C439.405 68.5136 435.113 68.708 428.183 68.708V69.708C435.077 69.708 439.489 69.5184 441.344 69.1209L441.134 68.1431ZM428.183 68.708C425.367 68.708 423.395 68.6759 422.258 68.6128L422.203 69.6112C423.37 69.6761 425.367 69.708 428.183 69.708V68.708ZM421.778 69.3246C422.81 71.5209 424.301 73.1868 426.255 74.2986C428.205 75.4077 430.583 75.948 433.367 75.948V74.948C430.71 74.948 428.513 74.4323 426.75 73.4294C424.992 72.4292 423.636 70.9271 422.683 68.8994L421.778 69.3246ZM433.367 75.948C433.72 75.948 434.486 75.88 435.63 75.7529L435.52 74.7591C434.359 74.888 433.653 74.948 433.367 74.948V75.948ZM435.616 75.7543C437.144 75.627 438.441 75.564 439.511 75.564V74.564C438.405 74.564 437.078 74.629 435.533 74.7577L435.616 75.7543ZM439.511 75.564C441.338 75.564 442.783 75.7538 443.865 76.1143L444.181 75.1657C442.958 74.7582 441.395 74.564 439.511 74.564V75.564Z" fill="black" fill-opacity="0.14" mask="url(#path-1-outside-1_26_343)"/>
<path d="M34.176 83.904C23.552 83.84 15.584 81.216 10.272 76.032C5.024 70.848 2.4 62.432 2.4 50.784C2.4 40.224 4.96 31.936 10.08 25.92C15.2 19.84 22.432 16.8 31.776 16.8C37.536 16.8 42.56 17.664 46.848 19.392C51.136 21.12 54.432 23.584 56.736 26.784C59.04 29.984 60.192 33.76 60.192 38.112C60.192 41.568 59.424 44.64 57.888 47.328C56.416 50.016 54.208 52.416 51.264 54.528C53.632 54.912 55.68 56.192 57.408 58.368C59.2 60.544 60.096 63.072 60.096 65.952C60.096 69.024 59.264 71.936 57.6 74.688C56 77.376 53.248 79.584 49.344 81.312C45.504 83.04 40.448 83.904 34.176 83.904ZM27.552 48.096C28.704 48.672 30.144 48.96 31.872 48.96C33.92 48.96 35.68 48.48 37.152 47.52C38.688 46.496 39.456 44.992 39.456 43.008C39.456 41.088 38.688 39.648 37.152 38.688C35.68 37.664 33.888 37.152 31.776 37.152C30.112 37.152 28.704 37.44 27.552 38.016C26.656 38.4 25.984 39.072 25.536 40.032C25.088 40.992 24.864 42.016 24.864 43.104C24.864 44.192 25.088 45.216 25.536 46.176C25.984 47.072 26.656 47.712 27.552 48.096ZM27.552 70.56C28.768 71.072 30.208 71.328 31.872 71.328C33.92 71.328 35.68 70.912 37.152 70.08C38.688 69.184 39.456 67.872 39.456 66.144C39.456 64.48 38.688 63.2 37.152 62.304C35.616 61.408 33.824 60.96 31.776 60.96C30.176 60.96 28.768 61.216 27.552 61.728C26.656 62.112 25.984 62.72 25.536 63.552C25.088 64.32 24.864 65.184 24.864 66.144C24.864 67.104 25.088 68 25.536 68.832C25.984 69.6 26.656 70.176 27.552 70.56ZM112.376 84C105.208 84 99.0635 82.4 93.9435 79.2C88.8235 75.936 84.9515 71.616 82.3275 66.24C79.7675 60.8 78.4875 54.88 78.4875 48.48C78.4875 39.648 79.5115 32.16 81.5595 26.016C83.6075 19.872 87.6075 16.8 93.5595 16.8C98.2315 16.8 101.592 18.176 103.64 20.928C105.688 23.68 106.712 27.072 106.712 31.104C106.712 33.792 106.456 36.928 105.944 40.512C105.432 43.968 105.176 46.88 105.176 49.248C105.176 52.384 105.72 55.072 106.808 57.312C107.896 59.552 109.752 60.672 112.376 60.672C115.064 60.672 116.92 59.552 117.944 57.312C119.032 55.072 119.576 52.384 119.576 49.248C119.576 46.88 119.32 43.968 118.808 40.512C118.296 36.928 118.04 33.792 118.04 31.104C118.04 27.072 119.064 23.68 121.112 20.928C123.16 18.176 126.52 16.8 131.192 16.8C137.144 16.8 141.144 19.872 143.192 26.016C145.24 32.16 146.264 39.648 146.264 48.48C146.264 54.88 144.952 60.8 142.328 66.24C139.768 71.616 135.928 75.936 130.808 79.2C125.688 82.4 119.544 84 112.376 84ZM196.289 83.904C185.665 83.84 177.697 81.216 172.385 76.032C167.137 70.848 164.513 62.432 164.513 50.784C164.513 40.224 167.073 31.936 172.193 25.92C177.313 19.84 184.545 16.8 193.889 16.8C199.649 16.8 204.673 17.664 208.961 19.392C213.249 21.12 216.545 23.584 218.849 26.784C221.153 29.984 222.305 33.76 222.305 38.112C222.305 41.568 221.537 44.64 220.001 47.328C218.529 50.016 216.321 52.416 213.377 54.528C215.745 54.912 217.793 56.192 219.521 58.368C221.313 60.544 222.209 63.072 222.209 65.952C222.209 69.024 221.377 71.936 219.713 74.688C218.113 77.376 215.361 79.584 211.457 81.312C207.617 83.04 202.561 83.904 196.289 83.904ZM189.665 48.096C190.817 48.672 192.257 48.96 193.985 48.96C196.033 48.96 197.793 48.48 199.265 47.52C200.801 46.496 201.569 44.992 201.569 43.008C201.569 41.088 200.801 39.648 199.265 38.688C197.793 37.664 196.001 37.152 193.889 37.152C192.225 37.152 190.817 37.44 189.665 38.016C188.769 38.4 188.097 39.072 187.649 40.032C187.201 40.992 186.977 42.016 186.977 43.104C186.977 44.192 187.201 45.216 187.649 46.176C188.097 47.072 188.769 47.712 189.665 48.096ZM189.665 70.56C190.881 71.072 192.321 71.328 193.985 71.328C196.033 71.328 197.793 70.912 199.265 70.08C200.801 69.184 201.569 67.872 201.569 66.144C201.569 64.48 200.801 63.2 199.265 62.304C197.729 61.408 195.937 60.96 193.889 60.96C192.289 60.96 190.881 61.216 189.665 61.728C188.769 62.112 188.097 62.72 187.649 63.552C187.201 64.32 186.977 65.184 186.977 66.144C186.977 67.104 187.201 68 187.649 68.832C188.097 69.6 188.769 70.176 189.665 70.56ZM273.313 83.904C262.689 83.84 254.721 81.216 249.409 76.032C244.161 70.848 241.537 62.432 241.537 50.784C241.537 40.224 244.097 31.936 249.217 25.92C254.337 19.84 261.569 16.8 270.913 16.8C276.674 16.8 281.698 17.664 285.986 19.392C290.273 21.12 293.569 23.584 295.873 26.784C298.177 29.984 299.33 33.76 299.33 38.112C299.33 41.568 298.562 44.64 297.026 47.328C295.554 50.016 293.346 52.416 290.402 54.528C292.77 54.912 294.818 56.192 296.546 58.368C298.338 60.544 299.234 63.072 299.234 65.952C299.234 69.024 298.402 71.936 296.737 74.688C295.138 77.376 292.385 79.584 288.481 81.312C284.641 83.04 279.585 83.904 273.313 83.904ZM266.689 48.096C267.841 48.672 269.281 48.96 271.009 48.96C273.057 48.96 274.817 48.48 276.289 47.52C277.825 46.496 278.593 44.992 278.593 43.008C278.593 41.088 277.825 39.648 276.289 38.688C274.817 37.664 273.025 37.152 270.913 37.152C269.249 37.152 267.841 37.44 266.689 38.016C265.793 38.4 265.121 39.072 264.673 40.032C264.225 40.992 264.001 42.016 264.001 43.104C264.001 44.192 264.225 45.216 264.673 46.176C265.121 47.072 265.793 47.712 266.689 48.096ZM266.689 70.56C267.905 71.072 269.345 71.328 271.009 71.328C273.057 71.328 274.817 70.912 276.289 70.08C277.825 69.184 278.593 67.872 278.593 66.144C278.593 64.48 277.825 63.2 276.289 62.304C274.753 61.408 272.961 60.96 270.913 60.96C269.313 60.96 267.905 61.216 266.689 61.728C265.793 62.112 265.121 62.72 264.673 63.552C264.225 64.32 264.001 65.184 264.001 66.144C264.001 67.104 264.225 68 264.673 68.832C265.121 69.6 265.793 70.176 266.689 70.56ZM345.251 84C338.787 84 333.315 82.688 328.835 80.064C324.355 77.376 321.411 73.376 320.003 68.064C319.427 65.888 319.043 63.232 318.851 60.096C318.659 56.96 318.563 52.96 318.563 48.096C318.563 38.56 319.587 30.976 321.635 25.344C323.747 19.648 327.907 16.8 334.115 16.8C337.955 16.8 340.963 18.144 343.139 20.832C345.379 23.52 346.499 26.848 346.499 30.816C346.499 35.04 346.147 39.552 345.443 44.352C344.739 49.152 343.747 54.976 342.467 61.824C346.435 60.544 350.787 59.904 355.523 59.904C360.451 59.904 364.547 60.8 367.811 62.592C371.139 64.384 372.803 67.296 372.803 71.328C372.803 75.232 371.523 78.112 368.963 79.968C366.403 81.824 363.299 82.976 359.651 83.424C356.003 83.808 351.203 84 345.251 84ZM437.023 68.64C440.095 69.6 441.631 71.616 441.631 74.688C441.631 77.568 440.159 79.84 437.215 81.504C434.271 83.168 429.183 84 421.951 84C412.927 84 405.183 81.824 398.719 77.472C392.319 73.12 389.119 64.48 389.119 51.552C389.119 45.024 390.239 39.136 392.479 33.888C394.719 28.64 398.047 24.48 402.463 21.408C406.943 18.336 412.415 16.8 418.879 16.8C427.519 16.8 433.599 18.144 437.119 20.832C440.639 23.456 442.399 26.688 442.399 30.528C442.399 32.32 441.951 33.984 441.055 35.52C440.159 36.992 438.815 38.144 437.023 38.976C435.487 39.744 433.503 40.128 431.071 40.128L428.479 40.032C427.967 39.968 427.231 39.936 426.271 39.936C422.943 39.936 420.319 40.544 418.399 41.76C416.479 42.912 415.167 44.704 414.463 47.136C417.151 47.008 419.583 46.944 421.759 46.944C428.223 46.944 432.415 47.136 434.335 47.52C436.511 47.968 438.175 48.832 439.327 50.112C440.543 51.392 441.151 52.896 441.151 54.624C441.151 56.352 440.575 57.856 439.423 59.136C438.271 60.352 436.543 61.184 434.239 61.632C432.447 62.016 428.095 62.208 421.183 62.208C418.367 62.208 416.383 62.176 415.231 62.112C417.215 66.336 420.927 68.448 426.367 68.448C426.687 68.448 427.423 68.384 428.575 68.256C430.111 68.128 431.423 68.064 432.511 68.064C434.367 68.064 435.871 68.256 437.023 68.64Z" fill="#1E1E1E"/>
<path d="M47.8572 135V125.944L39.9852 112.6H44.4652L50.8652 123.96H48.9452L55.3452 112.6H59.8252L51.9532 125.944V135H47.8572ZM66.0487 135.32C64.31 135.32 62.8273 134.941 61.6007 134.184C60.374 133.427 59.4353 132.419 58.7847 131.16C58.1447 129.901 57.8247 128.525 57.8247 127.032C57.8247 125.528 58.1447 124.141 58.7847 122.872C59.4353 121.603 60.374 120.589 61.6007 119.832C62.8273 119.064 64.31 118.68 66.0487 118.68C67.7873 118.68 69.27 119.064 70.4967 119.832C71.7233 120.589 72.6567 121.603 73.2967 122.872C73.9473 124.141 74.2727 125.528 74.2727 127.032C74.2727 128.525 73.9473 129.901 73.2967 131.16C72.6567 132.419 71.7233 133.427 70.4967 134.184C69.27 134.941 67.7873 135.32 66.0487 135.32ZM66.0487 132.056C67.382 132.056 68.406 131.592 69.1207 130.664C69.846 129.725 70.2087 128.515 70.2087 127.032C70.2087 125.528 69.846 124.307 69.1207 123.368C68.406 122.419 67.382 121.944 66.0487 121.944C64.726 121.944 63.702 122.419 62.9767 123.368C62.2513 124.307 61.8887 125.528 61.8887 127.032C61.8887 128.515 62.2513 129.725 62.9767 130.664C63.702 131.592 64.726 132.056 66.0487 132.056ZM83.6587 135.32C81.9947 135.32 80.6667 134.989 79.6747 134.328C78.6827 133.667 77.968 132.76 77.5307 131.608C77.0933 130.445 76.8747 129.112 76.8747 127.608V119H80.8427V127.608C80.8427 129.091 81.088 130.195 81.5787 130.92C82.08 131.635 82.8907 131.992 84.0107 131.992C84.9067 131.992 85.648 131.779 86.2347 131.352C86.832 130.925 87.328 130.328 87.7227 129.56L87.0187 131.576V119H90.9867V135H87.2747L87.0827 132.216L87.9467 133.336C87.5627 133.827 86.9547 134.28 86.1227 134.696C85.3013 135.112 84.48 135.32 83.6587 135.32ZM94.6909 135V119H98.4029L98.4989 120.696C98.9043 120.248 99.4749 119.8 100.211 119.352C100.947 118.904 101.752 118.68 102.627 118.68C102.883 118.68 103.118 118.701 103.331 118.744L103.043 122.648C102.808 122.584 102.574 122.541 102.339 122.52C102.115 122.499 101.891 122.488 101.667 122.488C100.995 122.488 100.382 122.643 99.8269 122.952C99.2723 123.261 98.8829 123.64 98.6589 124.088V135H94.6909ZM113.049 135V112.6H117.145V135H113.049ZM127.499 135.32C125.877 135.32 124.512 134.941 123.403 134.184C122.304 133.427 121.472 132.419 120.907 131.16C120.352 129.901 120.075 128.525 120.075 127.032C120.075 125.539 120.352 124.163 120.907 122.904C121.472 121.645 122.304 120.637 123.403 119.88C124.512 119.123 125.877 118.744 127.499 118.744C128.672 118.744 129.664 118.941 130.475 119.336C131.285 119.72 132 120.216 132.619 120.824L131.659 121.656V111H135.627V135H131.883L131.691 132.28L132.843 133.112C132.096 133.795 131.323 134.333 130.523 134.728C129.723 135.123 128.715 135.32 127.499 135.32ZM128.075 132.056C128.949 132.056 129.664 131.843 130.219 131.416C130.773 130.989 131.184 130.403 131.451 129.656C131.717 128.899 131.851 128.024 131.851 127.032C131.851 126.04 131.717 125.171 131.451 124.424C131.184 123.667 130.773 123.075 130.219 122.648C129.664 122.221 128.949 122.008 128.075 122.008C127.243 122.008 126.533 122.221 125.947 122.648C125.36 123.075 124.912 123.667 124.603 124.424C124.293 125.171 124.139 126.04 124.139 127.032C124.139 128.024 124.293 128.899 124.603 129.656C124.912 130.403 125.36 130.989 125.947 131.416C126.533 131.843 127.243 132.056 128.075 132.056ZM147.028 135.32C145.097 135.32 143.487 134.936 142.196 134.168C140.916 133.389 139.956 132.365 139.316 131.096C138.676 129.816 138.356 128.419 138.356 126.904C138.356 125.443 138.655 124.093 139.252 122.856C139.86 121.619 140.745 120.627 141.908 119.88C143.071 119.123 144.489 118.744 146.164 118.744C147.7 118.744 148.98 119.059 150.004 119.688C151.028 120.317 151.796 121.16 152.308 122.216C152.82 123.261 153.076 124.419 153.076 125.688C153.076 126.04 153.055 126.397 153.012 126.76C152.969 127.112 152.905 127.48 152.82 127.864H142.484C142.633 128.856 142.943 129.661 143.412 130.28C143.892 130.888 144.473 131.336 145.156 131.624C145.849 131.912 146.591 132.056 147.38 132.056C148.308 132.056 149.172 131.939 149.972 131.704C150.772 131.459 151.508 131.139 152.18 130.744L152.372 134.104C151.764 134.424 151.007 134.707 150.1 134.952C149.193 135.197 148.169 135.32 147.028 135.32ZM142.58 125.176H149.044C149.044 124.696 148.953 124.216 148.772 123.736C148.591 123.245 148.287 122.835 147.86 122.504C147.444 122.173 146.879 122.008 146.164 122.008C145.14 122.008 144.335 122.307 143.748 122.904C143.161 123.501 142.772 124.259 142.58 125.176ZM159.241 135.32C158.387 135.32 157.609 135.133 156.905 134.76C156.201 134.376 155.641 133.827 155.225 133.112C154.809 132.397 154.601 131.533 154.601 130.52C154.601 129.613 154.809 128.84 155.225 128.2C155.651 127.549 156.206 127.011 156.889 126.584C157.582 126.147 158.329 125.805 159.129 125.56C159.939 125.304 160.734 125.117 161.513 125C162.302 124.883 162.995 124.813 163.593 124.792C163.55 123.875 163.315 123.208 162.889 122.792C162.462 122.376 161.737 122.168 160.713 122.168C159.998 122.168 159.299 122.269 158.617 122.472C157.945 122.664 157.182 122.968 156.329 123.384L155.977 120.152C156.937 119.683 157.897 119.331 158.857 119.096C159.827 118.861 160.809 118.744 161.801 118.744C162.995 118.744 164.025 118.957 164.889 119.384C165.753 119.811 166.419 120.499 166.889 121.448C167.358 122.387 167.593 123.629 167.593 125.176V129.496C167.593 130.296 167.63 130.877 167.705 131.24C167.779 131.592 167.918 131.816 168.121 131.912C168.323 132.008 168.617 132.056 169.001 132.056H169.513L169.161 135.32H167.721C167.123 135.32 166.59 135.24 166.121 135.08C165.662 134.931 165.267 134.717 164.937 134.44C164.606 134.163 164.339 133.837 164.137 133.464C163.614 134.051 162.905 134.509 162.009 134.84C161.123 135.16 160.201 135.32 159.241 135.32ZM160.905 132.28C161.257 132.28 161.694 132.189 162.217 132.008C162.739 131.816 163.209 131.523 163.625 131.128V127.48C162.878 127.512 162.131 127.635 161.385 127.848C160.638 128.061 160.014 128.376 159.513 128.792C159.011 129.208 158.761 129.731 158.761 130.36C158.761 131.011 158.931 131.496 159.273 131.816C159.614 132.125 160.158 132.28 160.905 132.28ZM175.818 135.32C174.869 135.32 174.09 135.133 173.482 134.76C172.885 134.376 172.442 133.869 172.154 133.24C171.866 132.6 171.722 131.896 171.722 131.128V111H175.69V129.496C175.69 130.349 175.738 130.957 175.834 131.32C175.941 131.672 176.133 131.885 176.41 131.96C176.688 132.024 177.088 132.056 177.61 132.056L177.258 135.32H175.818ZM184.672 135.32C183.616 135.32 182.662 135.219 181.808 135.016C180.966 134.813 180.118 134.52 179.264 134.136L179.616 130.744C180.438 131.224 181.243 131.613 182.032 131.912C182.832 132.2 183.67 132.344 184.544 132.344C185.334 132.344 185.936 132.216 186.352 131.96C186.768 131.704 186.976 131.299 186.976 130.744C186.976 130.328 186.864 129.987 186.64 129.72C186.427 129.453 186.102 129.213 185.664 129C185.227 128.787 184.683 128.557 184.032 128.312C183.051 127.949 182.214 127.555 181.52 127.128C180.838 126.701 180.315 126.189 179.952 125.592C179.6 124.984 179.424 124.237 179.424 123.352C179.424 122.435 179.664 121.624 180.144 120.92C180.624 120.216 181.307 119.667 182.192 119.272C183.078 118.877 184.128 118.68 185.344 118.68C186.358 118.68 187.264 118.792 188.064 119.016C188.875 119.24 189.622 119.544 190.304 119.928L189.952 123.32C189.238 122.819 188.518 122.408 187.792 122.088C187.067 121.757 186.272 121.592 185.408 121.592C184.726 121.592 184.198 121.731 183.824 122.008C183.451 122.285 183.264 122.68 183.264 123.192C183.264 123.811 183.526 124.275 184.048 124.584C184.571 124.893 185.408 125.272 186.56 125.72C187.307 126.008 187.952 126.307 188.496 126.616C189.051 126.925 189.51 127.267 189.872 127.64C190.235 128.013 190.502 128.44 190.672 128.92C190.854 129.389 190.944 129.933 190.944 130.552C190.944 131.565 190.699 132.429 190.208 133.144C189.728 133.848 189.019 134.387 188.08 134.76C187.152 135.133 186.016 135.32 184.672 135.32ZM195.644 138.84H193.788L195.164 135H193.532V130.648H197.692V134.616L195.644 138.84ZM217.917 135.448C215.815 135.448 214.077 135.032 212.701 134.2C211.335 133.368 210.317 132.2 209.645 130.696C208.973 129.192 208.637 127.427 208.637 125.4V112.6H212.733V124.344C212.733 125.411 212.802 126.387 212.941 127.272C213.079 128.147 213.33 128.904 213.693 129.544C214.066 130.173 214.594 130.659 215.277 131C215.959 131.341 216.839 131.512 217.917 131.512C218.994 131.512 219.874 131.341 220.557 131C221.239 130.659 221.762 130.173 222.125 129.544C222.498 128.904 222.754 128.147 222.893 127.272C223.031 126.387 223.101 125.411 223.101 124.344V112.6H227.197V125.4C227.197 127.427 226.861 129.192 226.189 130.696C225.517 132.2 224.493 133.368 223.117 134.2C221.751 135.032 220.018 135.448 217.917 135.448ZM230.753 135V119H234.465L234.625 121.976L233.697 120.76C234.305 120.248 235.031 119.784 235.873 119.368C236.716 118.952 237.697 118.744 238.817 118.744C240.865 118.744 242.385 119.427 243.377 120.792C244.369 122.147 244.865 123.907 244.865 126.072V135H240.897V126.392C240.897 124.899 240.647 123.795 240.145 123.08C239.655 122.365 238.849 122.008 237.729 122.008C236.823 122.008 236.081 122.232 235.505 122.68C234.929 123.117 234.423 123.704 233.985 124.44L234.721 122.488V135H230.753ZM255.834 135.32C253.999 135.32 252.458 134.947 251.21 134.2C249.972 133.443 249.034 132.44 248.394 131.192C247.764 129.933 247.45 128.547 247.45 127.032C247.45 125.507 247.764 124.115 248.394 122.856C249.023 121.587 249.967 120.573 251.226 119.816C252.484 119.059 254.063 118.68 255.962 118.68C256.858 118.68 257.668 118.781 258.394 118.984C259.119 119.176 259.738 119.416 260.25 119.704L259.93 122.904C259.439 122.648 258.884 122.435 258.266 122.264C257.658 122.093 257.018 122.008 256.346 122.008C254.81 122.008 253.62 122.472 252.778 123.4C251.935 124.328 251.514 125.539 251.514 127.032C251.514 128.451 251.946 129.645 252.81 130.616C253.674 131.576 254.842 132.056 256.314 132.056C256.943 132.056 257.562 131.965 258.17 131.784C258.788 131.592 259.386 131.331 259.962 131L260.314 134.36C259.759 134.648 259.087 134.877 258.298 135.048C257.519 135.229 256.698 135.32 255.834 135.32ZM262.94 135V111H266.908V121.336L266.012 120.632C266.684 120.163 267.415 119.731 268.204 119.336C268.994 118.941 269.938 118.744 271.036 118.744C272.444 118.744 273.591 119.059 274.476 119.688C275.362 120.307 276.012 121.171 276.428 122.28C276.844 123.379 277.052 124.653 277.052 126.104V135H273.084V126.392C273.084 124.899 272.844 123.795 272.364 123.08C271.884 122.365 271.1 122.008 270.012 122.008C269.084 122.008 268.322 122.227 267.724 122.664C267.138 123.091 266.62 123.672 266.172 124.408L266.908 122.264V135H262.94ZM284.053 135.32C283.2 135.32 282.421 135.133 281.717 134.76C281.013 134.376 280.453 133.827 280.037 133.112C279.621 132.397 279.413 131.533 279.413 130.52C279.413 129.613 279.621 128.84 280.037 128.2C280.464 127.549 281.019 127.011 281.701 126.584C282.395 126.147 283.141 125.805 283.941 125.56C284.752 125.304 285.547 125.117 286.325 125C287.115 124.883 287.808 124.813 288.405 124.792C288.363 123.875 288.128 123.208 287.701 122.792C287.275 122.376 286.549 122.168 285.525 122.168C284.811 122.168 284.112 122.269 283.429 122.472C282.757 122.664 281.995 122.968 281.141 123.384L280.789 120.152C281.749 119.683 282.709 119.331 283.669 119.096C284.64 118.861 285.621 118.744 286.613 118.744C287.808 118.744 288.837 118.957 289.701 119.384C290.565 119.811 291.232 120.499 291.701 121.448C292.171 122.387 292.405 123.629 292.405 125.176V129.496C292.405 130.296 292.443 130.877 292.517 131.24C292.592 131.592 292.731 131.816 292.933 131.912C293.136 132.008 293.429 132.056 293.813 132.056H294.325L293.973 135.32H292.533C291.936 135.32 291.403 135.24 290.933 135.08C290.475 134.931 290.08 134.717 289.749 134.44C289.419 134.163 289.152 133.837 288.949 133.464C288.427 134.051 287.717 134.509 286.821 134.84C285.936 135.16 285.013 135.32 284.053 135.32ZM285.717 132.28C286.069 132.28 286.507 132.189 287.029 132.008C287.552 131.816 288.021 131.523 288.437 131.128V127.48C287.691 127.512 286.944 127.635 286.197 127.848C285.451 128.061 284.827 128.376 284.325 128.792C283.824 129.208 283.573 129.731 283.573 130.36C283.573 131.011 283.744 131.496 284.085 131.816C284.427 132.125 284.971 132.28 285.717 132.28ZM300.631 135.32C299.681 135.32 298.903 135.133 298.295 134.76C297.697 134.376 297.255 133.869 296.967 133.24C296.679 132.6 296.535 131.896 296.535 131.128V111H300.503V129.496C300.503 130.349 300.551 130.957 300.647 131.32C300.753 131.672 300.945 131.885 301.223 131.96C301.5 132.024 301.9 132.056 302.423 132.056L302.071 135.32H300.631ZM309.037 135.32C308.088 135.32 307.309 135.133 306.701 134.76C306.104 134.376 305.661 133.869 305.373 133.24C305.085 132.6 304.941 131.896 304.941 131.128V111H308.909V129.496C308.909 130.349 308.957 130.957 309.053 131.32C309.16 131.672 309.352 131.885 309.629 131.96C309.906 132.024 310.306 132.056 310.829 132.056L310.477 135.32H309.037ZM320.903 135.32C318.972 135.32 317.362 134.936 316.071 134.168C314.791 133.389 313.831 132.365 313.191 131.096C312.551 129.816 312.231 128.419 312.231 126.904C312.231 125.443 312.53 124.093 313.127 122.856C313.735 121.619 314.62 120.627 315.783 119.88C316.946 119.123 318.364 118.744 320.039 118.744C321.575 118.744 322.855 119.059 323.879 119.688C324.903 120.317 325.671 121.16 326.183 122.216C326.695 123.261 326.951 124.419 326.951 125.688C326.951 126.04 326.93 126.397 326.887 126.76C326.844 127.112 326.78 127.48 326.695 127.864H316.359C316.508 128.856 316.818 129.661 317.287 130.28C317.767 130.888 318.348 131.336 319.031 131.624C319.724 131.912 320.466 132.056 321.255 132.056C322.183 132.056 323.047 131.939 323.847 131.704C324.647 131.459 325.383 131.139 326.055 130.744L326.247 134.104C325.639 134.424 324.882 134.707 323.975 134.952C323.068 135.197 322.044 135.32 320.903 135.32ZM316.455 125.176H322.919C322.919 124.696 322.828 124.216 322.647 123.736C322.466 123.245 322.162 122.835 321.735 122.504C321.319 122.173 320.754 122.008 320.039 122.008C319.015 122.008 318.21 122.307 317.623 122.904C317.036 123.501 316.647 124.259 316.455 125.176ZM329.66 135V119H333.372L333.532 121.976L332.604 120.76C333.212 120.248 333.937 119.784 334.78 119.368C335.622 118.952 336.604 118.744 337.724 118.744C339.772 118.744 341.292 119.427 342.284 120.792C343.276 122.147 343.772 123.907 343.772 126.072V135H339.804V126.392C339.804 124.899 339.553 123.795 339.052 123.08C338.561 122.365 337.756 122.008 336.636 122.008C335.729 122.008 334.988 122.232 334.412 122.68C333.836 123.117 333.329 123.704 332.892 124.44L333.628 122.488V135H329.66ZM353.652 143.064C352.159 143.064 350.852 142.877 349.732 142.504C348.623 142.141 347.759 141.619 347.14 140.936C346.532 140.253 346.228 139.437 346.228 138.488C346.228 137.688 346.447 136.973 346.884 136.344C347.332 135.725 347.977 135.181 348.82 134.712C348.393 134.456 348.052 134.136 347.796 133.752C347.54 133.368 347.412 132.931 347.412 132.44C347.412 131.928 347.556 131.485 347.844 131.112C348.143 130.728 348.532 130.424 349.012 130.2C348.201 129.624 347.588 128.888 347.172 127.992C346.756 127.085 346.548 126.104 346.548 125.048C346.548 123.896 346.799 122.84 347.3 121.88C347.801 120.909 348.532 120.136 349.492 119.56C350.463 118.973 351.647 118.68 353.044 118.68C353.769 118.68 354.436 118.771 355.044 118.952C355.663 119.133 356.212 119.384 356.692 119.704C357.012 119.523 357.476 119.363 358.084 119.224C358.692 119.075 359.369 119 360.116 119C360.297 119 360.468 119 360.628 119C360.799 119 360.969 119 361.14 119L360.884 121.496C360.649 121.496 360.409 121.496 360.164 121.496C359.929 121.496 359.689 121.496 359.444 121.496C359.348 121.496 359.22 121.496 359.06 121.496C358.9 121.496 358.729 121.507 358.548 121.528C358.868 122.019 359.108 122.568 359.268 123.176C359.428 123.784 359.508 124.408 359.508 125.048C359.508 126.2 359.257 127.261 358.756 128.232C358.265 129.192 357.54 129.965 356.58 130.552C355.62 131.128 354.441 131.416 353.044 131.416C352.745 131.416 352.457 131.395 352.18 131.352C351.903 131.309 351.625 131.256 351.348 131.192C351.113 131.288 350.996 131.459 350.996 131.704C350.996 131.992 351.172 132.211 351.524 132.36C351.876 132.509 352.425 132.643 353.172 132.76L355.924 133.112C357.641 133.336 358.985 133.821 359.956 134.568C360.937 135.315 361.428 136.376 361.428 137.752C361.428 138.819 361.119 139.747 360.5 140.536C359.892 141.336 359.007 141.955 357.844 142.392C356.681 142.84 355.284 143.064 353.652 143.064ZM353.812 140.056C355.156 140.056 356.175 139.891 356.868 139.56C357.561 139.229 357.908 138.723 357.908 138.04C357.908 137.432 357.663 136.984 357.172 136.696C356.692 136.408 355.924 136.184 354.868 136.024L351.364 135.512C350.841 135.715 350.404 135.992 350.052 136.344C349.7 136.707 349.524 137.176 349.524 137.752C349.524 138.531 349.903 139.107 350.66 139.48C351.417 139.864 352.468 140.056 353.812 140.056ZM353.044 128.472C353.993 128.472 354.708 128.163 355.188 127.544C355.679 126.915 355.924 126.083 355.924 125.048C355.924 124.003 355.679 123.171 355.188 122.552C354.708 121.933 353.993 121.624 353.044 121.624C352.084 121.624 351.359 121.933 350.868 122.552C350.377 123.171 350.132 124.003 350.132 125.048C350.132 126.083 350.377 126.915 350.868 127.544C351.359 128.163 352.084 128.472 353.044 128.472ZM370.934 135.32C369.004 135.32 367.393 134.936 366.102 134.168C364.822 133.389 363.862 132.365 363.222 131.096C362.582 129.816 362.262 128.419 362.262 126.904C362.262 125.443 362.561 124.093 363.158 122.856C363.766 121.619 364.652 120.627 365.814 119.88C366.977 119.123 368.396 118.744 370.07 118.744C371.606 118.744 372.886 119.059 373.91 119.688C374.934 120.317 375.702 121.16 376.214 122.216C376.726 123.261 376.982 124.419 376.982 125.688C376.982 126.04 376.961 126.397 376.918 126.76C376.876 127.112 376.812 127.48 376.726 127.864H366.39C366.54 128.856 366.849 129.661 367.318 130.28C367.798 130.888 368.38 131.336 369.062 131.624C369.756 131.912 370.497 132.056 371.286 132.056C372.214 132.056 373.078 131.939 373.878 131.704C374.678 131.459 375.414 131.139 376.086 130.744L376.278 134.104C375.67 134.424 374.913 134.707 374.006 134.952C373.1 135.197 372.076 135.32 370.934 135.32ZM366.486 125.176H372.95C372.95 124.696 372.86 124.216 372.678 123.736C372.497 123.245 372.193 122.835 371.766 122.504C371.35 122.173 370.785 122.008 370.07 122.008C369.046 122.008 368.241 122.307 367.654 122.904C367.068 123.501 366.678 124.259 366.486 125.176ZM386.155 135.32C384.534 135.32 383.168 134.941 382.059 134.184C380.96 133.427 380.128 132.419 379.563 131.16C379.008 129.901 378.731 128.525 378.731 127.032C378.731 125.539 379.008 124.163 379.563 122.904C380.128 121.645 380.96 120.637 382.059 119.88C383.168 119.123 384.534 118.744 386.155 118.744C387.328 118.744 388.32 118.941 389.131 119.336C389.942 119.72 390.656 120.216 391.275 120.824L390.315 121.656V111H394.283V135H390.539L390.347 132.28L391.499 133.112C390.752 133.795 389.979 134.333 389.179 134.728C388.379 135.123 387.371 135.32 386.155 135.32ZM386.731 132.056C387.606 132.056 388.32 131.843 388.875 131.416C389.43 130.989 389.84 130.403 390.107 129.656C390.374 128.899 390.507 128.024 390.507 127.032C390.507 126.04 390.374 125.171 390.107 124.424C389.84 123.667 389.43 123.075 388.875 122.648C388.32 122.221 387.606 122.008 386.731 122.008C385.899 122.008 385.19 122.221 384.603 122.648C384.016 123.075 383.568 123.667 383.259 124.424C382.95 125.171 382.795 126.04 382.795 127.032C382.795 128.024 382.95 128.899 383.259 129.656C383.568 130.403 384.016 130.989 384.603 131.416C385.19 131.843 385.899 132.056 386.731 132.056ZM397.588 135V130.648H401.748V135H397.588Z" fill="black"/>
</svg>
