<svg width="454" height="100" viewBox="0 0 454 100" fill="none" xmlns="http://www.w3.org/2000/svg">
<g filter="url(#filter0_d_30_757)">
<path d="M41.176 90.904C30.552 90.84 22.584 88.216 17.272 83.032C12.024 77.848 9.4 69.432 9.4 57.784C9.4 47.224 11.96 38.936 17.08 32.92C22.2 26.84 29.432 23.8 38.776 23.8C44.536 23.8 49.56 24.664 53.848 26.392C58.136 28.12 61.432 30.584 63.736 33.784C66.04 36.984 67.192 40.76 67.192 45.112C67.192 48.568 66.424 51.64 64.888 54.328C63.416 57.016 61.208 59.416 58.264 61.528C60.632 61.912 62.68 63.192 64.408 65.368C66.2 67.544 67.096 70.072 67.096 72.952C67.096 76.024 66.264 78.936 64.6 81.688C63 84.376 60.248 86.584 56.344 88.312C52.504 90.04 47.448 90.904 41.176 90.904ZM34.552 55.096C35.704 55.672 37.144 55.96 38.872 55.96C40.92 55.96 42.68 55.48 44.152 54.52C45.688 53.496 46.456 51.992 46.456 50.008C46.456 48.088 45.688 46.648 44.152 45.688C42.68 44.664 40.888 44.152 38.776 44.152C37.112 44.152 35.704 44.44 34.552 45.016C33.656 45.4 32.984 46.072 32.536 47.032C32.088 47.992 31.864 49.016 31.864 50.104C31.864 51.192 32.088 52.216 32.536 53.176C32.984 54.072 33.656 54.712 34.552 55.096ZM34.552 77.56C35.768 78.072 37.208 78.328 38.872 78.328C40.92 78.328 42.68 77.912 44.152 77.08C45.688 76.184 46.456 74.872 46.456 73.144C46.456 71.48 45.688 70.2 44.152 69.304C42.616 68.408 40.824 67.96 38.776 67.96C37.176 67.96 35.768 68.216 34.552 68.728C33.656 69.112 32.984 69.72 32.536 70.552C32.088 71.32 31.864 72.184 31.864 73.144C31.864 74.104 32.088 75 32.536 75.832C32.984 76.6 33.656 77.176 34.552 77.56ZM119.376 91C112.208 91 106.064 89.4 100.944 86.2C95.8235 82.936 91.9515 78.616 89.3275 73.24C86.7675 67.8 85.4875 61.88 85.4875 55.48C85.4875 46.648 86.5115 39.16 88.5595 33.016C90.6075 26.872 94.6075 23.8 100.56 23.8C105.232 23.8 108.592 25.176 110.64 27.928C112.688 30.68 113.712 34.072 113.712 38.104C113.712 40.792 113.456 43.928 112.944 47.512C112.432 50.968 112.176 53.88 112.176 56.248C112.176 59.384 112.72 62.072 113.808 64.312C114.896 66.552 116.752 67.672 119.376 67.672C122.064 67.672 123.92 66.552 124.944 64.312C126.032 62.072 126.576 59.384 126.576 56.248C126.576 53.88 126.32 50.968 125.808 47.512C125.296 43.928 125.04 40.792 125.04 38.104C125.04 34.072 126.064 30.68 128.112 27.928C130.16 25.176 133.52 23.8 138.192 23.8C144.144 23.8 148.144 26.872 150.192 33.016C152.24 39.16 153.264 46.648 153.264 55.48C153.264 61.88 151.952 67.8 149.328 73.24C146.768 78.616 142.928 82.936 137.808 86.2C132.688 89.4 126.544 91 119.376 91ZM203.289 90.904C192.665 90.84 184.697 88.216 179.385 83.032C174.137 77.848 171.513 69.432 171.513 57.784C171.513 47.224 174.073 38.936 179.193 32.92C184.313 26.84 191.545 23.8 200.889 23.8C206.649 23.8 211.673 24.664 215.961 26.392C220.249 28.12 223.545 30.584 225.849 33.784C228.153 36.984 229.305 40.76 229.305 45.112C229.305 48.568 228.537 51.64 227.001 54.328C225.529 57.016 223.321 59.416 220.377 61.528C222.745 61.912 224.793 63.192 226.521 65.368C228.313 67.544 229.209 70.072 229.209 72.952C229.209 76.024 228.377 78.936 226.713 81.688C225.113 84.376 222.361 86.584 218.457 88.312C214.617 90.04 209.561 90.904 203.289 90.904ZM196.665 55.096C197.817 55.672 199.257 55.96 200.985 55.96C203.033 55.96 204.793 55.48 206.265 54.52C207.801 53.496 208.569 51.992 208.569 50.008C208.569 48.088 207.801 46.648 206.265 45.688C204.793 44.664 203.001 44.152 200.889 44.152C199.225 44.152 197.817 44.44 196.665 45.016C195.769 45.4 195.097 46.072 194.649 47.032C194.201 47.992 193.977 49.016 193.977 50.104C193.977 51.192 194.201 52.216 194.649 53.176C195.097 54.072 195.769 54.712 196.665 55.096ZM196.665 77.56C197.881 78.072 199.321 78.328 200.985 78.328C203.033 78.328 204.793 77.912 206.265 77.08C207.801 76.184 208.569 74.872 208.569 73.144C208.569 71.48 207.801 70.2 206.265 69.304C204.729 68.408 202.937 67.96 200.889 67.96C199.289 67.96 197.881 68.216 196.665 68.728C195.769 69.112 195.097 69.72 194.649 70.552C194.201 71.32 193.977 72.184 193.977 73.144C193.977 74.104 194.201 75 194.649 75.832C195.097 76.6 195.769 77.176 196.665 77.56ZM280.313 90.904C269.689 90.84 261.721 88.216 256.409 83.032C251.161 77.848 248.537 69.432 248.537 57.784C248.537 47.224 251.097 38.936 256.217 32.92C261.337 26.84 268.569 23.8 277.913 23.8C283.674 23.8 288.698 24.664 292.986 26.392C297.273 28.12 300.569 30.584 302.873 33.784C305.177 36.984 306.33 40.76 306.33 45.112C306.33 48.568 305.562 51.64 304.026 54.328C302.554 57.016 300.346 59.416 297.402 61.528C299.77 61.912 301.818 63.192 303.546 65.368C305.338 67.544 306.234 70.072 306.234 72.952C306.234 76.024 305.402 78.936 303.737 81.688C302.138 84.376 299.385 86.584 295.481 88.312C291.641 90.04 286.585 90.904 280.313 90.904ZM273.689 55.096C274.841 55.672 276.281 55.96 278.009 55.96C280.057 55.96 281.817 55.48 283.289 54.52C284.825 53.496 285.593 51.992 285.593 50.008C285.593 48.088 284.825 46.648 283.289 45.688C281.817 44.664 280.025 44.152 277.913 44.152C276.249 44.152 274.841 44.44 273.689 45.016C272.793 45.4 272.121 46.072 271.673 47.032C271.225 47.992 271.001 49.016 271.001 50.104C271.001 51.192 271.225 52.216 271.673 53.176C272.121 54.072 272.793 54.712 273.689 55.096ZM273.689 77.56C274.905 78.072 276.345 78.328 278.009 78.328C280.057 78.328 281.817 77.912 283.289 77.08C284.825 76.184 285.593 74.872 285.593 73.144C285.593 71.48 284.825 70.2 283.289 69.304C281.753 68.408 279.961 67.96 277.913 67.96C276.313 67.96 274.905 68.216 273.689 68.728C272.793 69.112 272.121 69.72 271.673 70.552C271.225 71.32 271.001 72.184 271.001 73.144C271.001 74.104 271.225 75 271.673 75.832C272.121 76.6 272.793 77.176 273.689 77.56ZM352.251 91C345.787 91 340.315 89.688 335.835 87.064C331.355 84.376 328.411 80.376 327.003 75.064C326.427 72.888 326.043 70.232 325.851 67.096C325.659 63.96 325.563 59.96 325.563 55.096C325.563 45.56 326.587 37.976 328.635 32.344C330.747 26.648 334.907 23.8 341.115 23.8C344.955 23.8 347.963 25.144 350.139 27.832C352.379 30.52 353.499 33.848 353.499 37.816C353.499 42.04 353.147 46.552 352.443 51.352C351.739 56.152 350.747 61.976 349.467 68.824C353.435 67.544 357.787 66.904 362.523 66.904C367.451 66.904 371.547 67.8 374.811 69.592C378.139 71.384 379.803 74.296 379.803 78.328C379.803 82.232 378.523 85.112 375.963 86.968C373.403 88.824 370.299 89.976 366.651 90.424C363.003 90.808 358.203 91 352.251 91ZM444.023 75.64C447.095 76.6 448.631 78.616 448.631 81.688C448.631 84.568 447.159 86.84 444.215 88.504C441.271 90.168 436.183 91 428.951 91C419.927 91 412.183 88.824 405.719 84.472C399.319 80.12 396.119 71.48 396.119 58.552C396.119 52.024 397.239 46.136 399.479 40.888C401.719 35.64 405.047 31.48 409.463 28.408C413.943 25.336 419.415 23.8 425.879 23.8C434.519 23.8 440.599 25.144 444.119 27.832C447.639 30.456 449.399 33.688 449.399 37.528C449.399 39.32 448.951 40.984 448.055 42.52C447.159 43.992 445.815 45.144 444.023 45.976C442.487 46.744 440.503 47.128 438.071 47.128L435.479 47.032C434.967 46.968 434.231 46.936 433.271 46.936C429.943 46.936 427.319 47.544 425.399 48.76C423.479 49.912 422.167 51.704 421.463 54.136C424.151 54.008 426.583 53.944 428.759 53.944C435.223 53.944 439.415 54.136 441.335 54.52C443.511 54.968 445.175 55.832 446.327 57.112C447.543 58.392 448.151 59.896 448.151 61.624C448.151 63.352 447.575 64.856 446.423 66.136C445.271 67.352 443.543 68.184 441.239 68.632C439.447 69.016 435.095 69.208 428.183 69.208C425.367 69.208 423.383 69.176 422.231 69.112C424.215 73.336 427.927 75.448 433.367 75.448C433.687 75.448 434.423 75.384 435.575 75.256C437.111 75.128 438.423 75.064 439.511 75.064C441.367 75.064 442.871 75.256 444.023 75.64Z" fill="#CFC0BD"/>
</g>
<path d="M34.176 83.904C23.552 83.84 15.584 81.216 10.272 76.032C5.024 70.848 2.4 62.432 2.4 50.784C2.4 40.224 4.96 31.936 10.08 25.92C15.2 19.84 22.432 16.8 31.776 16.8C37.536 16.8 42.56 17.664 46.848 19.392C51.136 21.12 54.432 23.584 56.736 26.784C59.04 29.984 60.192 33.76 60.192 38.112C60.192 41.568 59.424 44.64 57.888 47.328C56.416 50.016 54.208 52.416 51.264 54.528C53.632 54.912 55.68 56.192 57.408 58.368C59.2 60.544 60.096 63.072 60.096 65.952C60.096 69.024 59.264 71.936 57.6 74.688C56 77.376 53.248 79.584 49.344 81.312C45.504 83.04 40.448 83.904 34.176 83.904ZM27.552 48.096C28.704 48.672 30.144 48.96 31.872 48.96C33.92 48.96 35.68 48.48 37.152 47.52C38.688 46.496 39.456 44.992 39.456 43.008C39.456 41.088 38.688 39.648 37.152 38.688C35.68 37.664 33.888 37.152 31.776 37.152C30.112 37.152 28.704 37.44 27.552 38.016C26.656 38.4 25.984 39.072 25.536 40.032C25.088 40.992 24.864 42.016 24.864 43.104C24.864 44.192 25.088 45.216 25.536 46.176C25.984 47.072 26.656 47.712 27.552 48.096ZM27.552 70.56C28.768 71.072 30.208 71.328 31.872 71.328C33.92 71.328 35.68 70.912 37.152 70.08C38.688 69.184 39.456 67.872 39.456 66.144C39.456 64.48 38.688 63.2 37.152 62.304C35.616 61.408 33.824 60.96 31.776 60.96C30.176 60.96 28.768 61.216 27.552 61.728C26.656 62.112 25.984 62.72 25.536 63.552C25.088 64.32 24.864 65.184 24.864 66.144C24.864 67.104 25.088 68 25.536 68.832C25.984 69.6 26.656 70.176 27.552 70.56ZM112.376 84C105.208 84 99.0635 82.4 93.9435 79.2C88.8235 75.936 84.9515 71.616 82.3275 66.24C79.7675 60.8 78.4875 54.88 78.4875 48.48C78.4875 39.648 79.5115 32.16 81.5595 26.016C83.6075 19.872 87.6075 16.8 93.5595 16.8C98.2315 16.8 101.592 18.176 103.64 20.928C105.688 23.68 106.712 27.072 106.712 31.104C106.712 33.792 106.456 36.928 105.944 40.512C105.432 43.968 105.176 46.88 105.176 49.248C105.176 52.384 105.72 55.072 106.808 57.312C107.896 59.552 109.752 60.672 112.376 60.672C115.064 60.672 116.92 59.552 117.944 57.312C119.032 55.072 119.576 52.384 119.576 49.248C119.576 46.88 119.32 43.968 118.808 40.512C118.296 36.928 118.04 33.792 118.04 31.104C118.04 27.072 119.064 23.68 121.112 20.928C123.16 18.176 126.52 16.8 131.192 16.8C137.144 16.8 141.144 19.872 143.192 26.016C145.24 32.16 146.264 39.648 146.264 48.48C146.264 54.88 144.952 60.8 142.328 66.24C139.768 71.616 135.928 75.936 130.808 79.2C125.688 82.4 119.544 84 112.376 84ZM196.289 83.904C185.665 83.84 177.697 81.216 172.385 76.032C167.137 70.848 164.513 62.432 164.513 50.784C164.513 40.224 167.073 31.936 172.193 25.92C177.313 19.84 184.545 16.8 193.889 16.8C199.649 16.8 204.673 17.664 208.961 19.392C213.249 21.12 216.545 23.584 218.849 26.784C221.153 29.984 222.305 33.76 222.305 38.112C222.305 41.568 221.537 44.64 220.001 47.328C218.529 50.016 216.321 52.416 213.377 54.528C215.745 54.912 217.793 56.192 219.521 58.368C221.313 60.544 222.209 63.072 222.209 65.952C222.209 69.024 221.377 71.936 219.713 74.688C218.113 77.376 215.361 79.584 211.457 81.312C207.617 83.04 202.561 83.904 196.289 83.904ZM189.665 48.096C190.817 48.672 192.257 48.96 193.985 48.96C196.033 48.96 197.793 48.48 199.265 47.52C200.801 46.496 201.569 44.992 201.569 43.008C201.569 41.088 200.801 39.648 199.265 38.688C197.793 37.664 196.001 37.152 193.889 37.152C192.225 37.152 190.817 37.44 189.665 38.016C188.769 38.4 188.097 39.072 187.649 40.032C187.201 40.992 186.977 42.016 186.977 43.104C186.977 44.192 187.201 45.216 187.649 46.176C188.097 47.072 188.769 47.712 189.665 48.096ZM189.665 70.56C190.881 71.072 192.321 71.328 193.985 71.328C196.033 71.328 197.793 70.912 199.265 70.08C200.801 69.184 201.569 67.872 201.569 66.144C201.569 64.48 200.801 63.2 199.265 62.304C197.729 61.408 195.937 60.96 193.889 60.96C192.289 60.96 190.881 61.216 189.665 61.728C188.769 62.112 188.097 62.72 187.649 63.552C187.201 64.32 186.977 65.184 186.977 66.144C186.977 67.104 187.201 68 187.649 68.832C188.097 69.6 188.769 70.176 189.665 70.56ZM273.313 83.904C262.689 83.84 254.721 81.216 249.409 76.032C244.161 70.848 241.537 62.432 241.537 50.784C241.537 40.224 244.097 31.936 249.217 25.92C254.337 19.84 261.569 16.8 270.913 16.8C276.674 16.8 281.698 17.664 285.986 19.392C290.273 21.12 293.569 23.584 295.873 26.784C298.177 29.984 299.33 33.76 299.33 38.112C299.33 41.568 298.562 44.64 297.026 47.328C295.554 50.016 293.346 52.416 290.402 54.528C292.77 54.912 294.818 56.192 296.546 58.368C298.338 60.544 299.234 63.072 299.234 65.952C299.234 69.024 298.402 71.936 296.737 74.688C295.138 77.376 292.385 79.584 288.481 81.312C284.641 83.04 279.585 83.904 273.313 83.904ZM266.689 48.096C267.841 48.672 269.281 48.96 271.009 48.96C273.057 48.96 274.817 48.48 276.289 47.52C277.825 46.496 278.593 44.992 278.593 43.008C278.593 41.088 277.825 39.648 276.289 38.688C274.817 37.664 273.025 37.152 270.913 37.152C269.249 37.152 267.841 37.44 266.689 38.016C265.793 38.4 265.121 39.072 264.673 40.032C264.225 40.992 264.001 42.016 264.001 43.104C264.001 44.192 264.225 45.216 264.673 46.176C265.121 47.072 265.793 47.712 266.689 48.096ZM266.689 70.56C267.905 71.072 269.345 71.328 271.009 71.328C273.057 71.328 274.817 70.912 276.289 70.08C277.825 69.184 278.593 67.872 278.593 66.144C278.593 64.48 277.825 63.2 276.289 62.304C274.753 61.408 272.961 60.96 270.913 60.96C269.313 60.96 267.905 61.216 266.689 61.728C265.793 62.112 265.121 62.72 264.673 63.552C264.225 64.32 264.001 65.184 264.001 66.144C264.001 67.104 264.225 68 264.673 68.832C265.121 69.6 265.793 70.176 266.689 70.56ZM345.251 84C338.787 84 333.315 82.688 328.835 80.064C324.355 77.376 321.411 73.376 320.003 68.064C319.427 65.888 319.043 63.232 318.851 60.096C318.659 56.96 318.563 52.96 318.563 48.096C318.563 38.56 319.587 30.976 321.635 25.344C323.747 19.648 327.907 16.8 334.115 16.8C337.955 16.8 340.963 18.144 343.139 20.832C345.379 23.52 346.499 26.848 346.499 30.816C346.499 35.04 346.147 39.552 345.443 44.352C344.739 49.152 343.747 54.976 342.467 61.824C346.435 60.544 350.787 59.904 355.523 59.904C360.451 59.904 364.547 60.8 367.811 62.592C371.139 64.384 372.803 67.296 372.803 71.328C372.803 75.232 371.523 78.112 368.963 79.968C366.403 81.824 363.299 82.976 359.651 83.424C356.003 83.808 351.203 84 345.251 84ZM437.023 68.64C440.095 69.6 441.631 71.616 441.631 74.688C441.631 77.568 440.159 79.84 437.215 81.504C434.271 83.168 429.183 84 421.951 84C412.927 84 405.183 81.824 398.719 77.472C392.319 73.12 389.119 64.48 389.119 51.552C389.119 45.024 390.239 39.136 392.479 33.888C394.719 28.64 398.047 24.48 402.463 21.408C406.943 18.336 412.415 16.8 418.879 16.8C427.519 16.8 433.599 18.144 437.119 20.832C440.639 23.456 442.399 26.688 442.399 30.528C442.399 32.32 441.951 33.984 441.055 35.52C440.159 36.992 438.815 38.144 437.023 38.976C435.487 39.744 433.503 40.128 431.071 40.128L428.479 40.032C427.967 39.968 427.231 39.936 426.271 39.936C422.943 39.936 420.319 40.544 418.399 41.76C416.479 42.912 415.167 44.704 414.463 47.136C417.151 47.008 419.583 46.944 421.759 46.944C428.223 46.944 432.415 47.136 434.335 47.52C436.511 47.968 438.175 48.832 439.327 50.112C440.543 51.392 441.151 52.896 441.151 54.624C441.151 56.352 440.575 57.856 439.423 59.136C438.271 60.352 436.543 61.184 434.239 61.632C432.447 62.016 428.095 62.208 421.183 62.208C418.367 62.208 416.383 62.176 415.231 62.112C417.215 66.336 420.927 68.448 426.367 68.448C426.687 68.448 427.423 68.384 428.575 68.256C430.111 68.128 431.423 68.064 432.511 68.064C434.367 68.064 435.871 68.256 437.023 68.64Z" fill="#1E1E1E"/>
<defs>
<filter id="filter0_d_30_757" x="7.3999" y="23.8" width="443.999" height="71.2" filterUnits="userSpaceOnUse" color-interpolation-filters="sRGB">
<feFlood flood-opacity="0" result="BackgroundImageFix"/>
<feColorMatrix in="SourceAlpha" type="matrix" values="0 0 0 0 0 0 0 0 0 0 0 0 0 0 0 0 0 0 127 0" result="hardAlpha"/>
<feOffset dy="2"/>
<feGaussianBlur stdDeviation="1"/>
<feComposite in2="hardAlpha" operator="out"/>
<feColorMatrix type="matrix" values="0 0 0 0 0 0 0 0 0 0 0 0 0 0 0 0 0 0 0.25 0"/>
<feBlend mode="normal" in2="BackgroundImageFix" result="effect1_dropShadow_30_757"/>
<feBlend mode="normal" in="SourceGraphic" in2="effect1_dropShadow_30_757" result="shape"/>
</filter>
</defs>
</svg>
